<?xml version="1.0" encoding="utf-8"?>
<!-- Generator: Adobe Illustrator 24.0.0, SVG Export Plug-In . SVG Version: 6.00 Build 0)  -->
<svg version="1.1" xmlns="http://www.w3.org/2000/svg" xmlns:xlink="http://www.w3.org/1999/xlink" x="0px" y="0px"
	 viewBox="0 0 392.37 277.73" style="enable-background:new 0 0 392.37 277.73;" xml:space="preserve">
<style type="text/css">
	.st0{fill:none;stroke:#000000;stroke-width:5.6693;stroke-miterlimit:10;}
	.st1{fill:none;}
	.st2{fill:#004699;}
	.st3{fill:none;stroke:#004699;stroke-width:4.252;stroke-miterlimit:10;}
	.st4{fill:url(#SVGID_1_);}
	.st5{fill:#FFCC00;}
	.st6{fill:url(#SVGID_2_);}
	.st7{fill:url(#SVGID_3_);}
	.st8{fill:url(#SVGID_4_);}
	.st9{fill:url(#SVGID_5_);}
	.st10{fill:none;stroke:#FFCC00;stroke-width:5.4925;stroke-miterlimit:10;}
	.st11{fill:#FFCC00;stroke:#FFCC00;stroke-width:3.1137;stroke-miterlimit:10;}
	.st12{fill:#ECECEC;}
	.st13{fill:#FFFFFF;}
	.st14{fill:url(#SVGID_6_);}
	.st15{fill:url(#SVGID_7_);}
	.st16{fill:url(#SVGID_8_);}
	.st17{fill:url(#SVGID_9_);}
	.st18{fill:url(#SVGID_10_);}
	.st19{fill:url(#SVGID_11_);}
	.st20{fill:url(#SVGID_12_);}
	.st21{fill:url(#SVGID_13_);}
	.st22{fill:url(#SVGID_14_);}
	.st23{fill:url(#SVGID_15_);}
	.st24{fill:url(#SVGID_16_);}
	.st25{fill:url(#SVGID_17_);}
	.st26{fill:url(#SVGID_18_);}
</style>
<g id="HG">
	<g>
		<path class="st0" d="M363.3,145.2"/>
	</g>
	<g>
		<path class="st1" d="M256.66,221.87"/>
	</g>
	<g>
		<path class="st1" d="M76.64,220.19"/>
	</g>
	<g>
		<path class="st0" d="M363.93,145.94"/>
	</g>
	<g>
		<path class="st0" d="M344.77,147.51"/>
	</g>
	<path class="st2" d="M263.83,97.26l-0.95,9.2L245.37,108l0.95-9.2L263.83,97.26z"/>
	<path class="st3" d="M263.83,97.26l-0.95,9.2L245.37,108l0.95-9.2L263.83,97.26z"/>
	<path class="st2" d="M331.96,146.11"/>
	<g>
		<linearGradient id="SVGID_1_" gradientUnits="userSpaceOnUse" x1="18.5413" y1="134.583" x2="372.5944" y2="134.583">
			<stop  offset="0.0794" style="stop-color:#00397F"/>
			<stop  offset="0.5458" style="stop-color:#00418D"/>
			<stop  offset="1" style="stop-color:#004699"/>
		</linearGradient>
		<path class="st4" d="M52.34,236.86c-12.41,0-23.8-6.77-29.71-17.67c-4.29-7.92-5.25-17.04-2.68-25.7
			c2.33-7.84,7.29-14.43,14.09-18.79l-9.62,0.84c0,0,13.67-16.19,13.69-16.22c0.34-0.65,0.58-1.55,0.69-2.64l3.58-34.71l0.02-0.13
			c0-0.03,0.03-0.28-0.01-0.83c-0.03-0.36-0.09-0.5-0.09-0.51l-7.34-11.95l33.63-2.94c8.15-5.35,18.13-10.11,29.7-14.16l1.87-1.58
			l4.38-6.89h2.29l5.18-10.62l2.9-1.58l1.21-3.32l17.55-5.26l9.05-4.26l6.87-4.42l3.39-9.39l7.48-11.83l8.12,4.72l27,16.91
			l0.27,0.89c0.35,1.17,1.1,3.26,1.72,4.36c3.33,2.47,32.83,22.69,47.94,33.04l25.84-2.26l-1.92,18.65
			c24.07,16.49,50.95,34.9,60.55,41.59c0.56,0.42,1.44,0.82,2.21,0.82c0.29,0,0.53-0.05,0.74-0.17c2.94-1.55,6.42-2.49,10.63-2.86
			l28.32-2.48l0.59,7.48l0.08,16.75l-0.42,3.84c-0.5,4.98-2.73,9.1-6.44,11.9c-2.86,2.14-6.55,3.42-10.99,3.81l-23.38,2.04
			l-22.14,1.72c-21.01,16.11-56.41,24.43-103.04,31.92c-14.43,2.32-28.94,3.5-43.13,3.5c0,0,0,0,0,0c-29.49,0-57.3-5.21-78.72-14.69
			c-2.7,8.09-8.38,14.91-15.92,19C63.49,235.45,57.93,236.86,52.34,236.86z"/>
		<path class="st5" d="M161.3,35.64l6.06,3.52l26.15,16.37c0,0,1.11,3.65,2.21,5.3c0.25,0.37,22.6,15.72,49.15,33.92l0.24-0.02
			l17.52-1.53l5.98-0.52L268,98.65l-0.95,9.2l-0.2,1.96c26.37,18.06,52.19,35.75,61.75,42.41c0.75,0.56,2.15,1.26,3.62,1.26
			c0.63,0,1.28-0.13,1.9-0.46c2.45-1.3,5.58-2.22,9.69-2.58l20.94-1.83l4.9-0.43l0.39,4.9l0.08,16.51l-0.41,3.7
			c-0.43,4.3-2.32,7.82-5.47,10.2c-2.48,1.85-5.74,2.97-9.71,3.32l-23.38,2.05l-22.86,1.78c-20.46,16.04-55.4,24.32-102.5,31.89
			c-14.6,2.35-28.96,3.46-42.74,3.46c-30.98,0-59.05-5.65-80.3-15.66c-1.99,8.35-7.38,15.86-15.51,20.27
			c-4.57,2.48-9.72,3.79-14.9,3.79c-11.5,0-22.06-6.28-27.54-16.38c-8.23-15.17-2.58-34.2,12.59-42.42
			c2.25-1.22,4.65-2.16,7.12-2.79c-0.16-0.49-0.31-0.97-0.45-1.46l-13.87,1.21l9.74-11.54c0.13-0.16,0.21-0.26,0.25-0.31
			c0.56-0.97,0.93-2.23,1.09-3.76l3.55-34.48l0.01-0.13l0.02-0.13c0.04-0.25,0.07-0.69,0-1.41c-0.06-0.66-0.2-1.17-0.42-1.54
			l-5.27-8.58l10.03-0.88l20.24-1.77c7.77-5.18,17.63-10.05,30.11-14.39l2.51-2.12l3.86-6.06h2.48l5.51-11.3l3.03-1.65l1.1-3.03
			l16.53-4.96l9.37-4.41l7.72-4.96l3.58-9.92L161.3,35.64 M159.66,28.97L157.11,33l-6.06,9.58l-0.29,0.46l-0.18,0.51l-3.01,8.34
			l-6.03,3.88l-8.74,4.11l-16.18,4.85l-2.38,0.71l-0.85,2.34l-0.46,1.27l-1.39,0.76l-1.39,0.76l-0.69,1.42l-4.15,8.52h-2.1
			l-1.46,2.29l-3.45,5.42l-1.23,1.04c-11.33,4-21.17,8.68-29.29,13.93l-19,1.66l-10.03,0.88l-7.98,0.7l4.19,6.82l4.99,8.13
			c0.01,0.09,0.01,0.15,0.01,0.19l-0.01,0.04l-0.01,0.1l-0.01,0.1l-0.01,0.13l-3.55,34.48c-0.08,0.8-0.23,1.28-0.33,1.55
			l-9.61,11.38l-7.74,9.17l7.62-0.67c-4.02,4.14-7.01,9.23-8.7,14.93c-2.76,9.29-1.74,19.09,2.87,27.58
			c6.35,11.7,18.57,18.97,31.89,18.97c5.99,0,11.96-1.52,17.26-4.39c7.29-3.95,12.97-10.3,16.14-17.87
			c21.39,8.97,48.58,13.87,77.31,13.87c14.33,0,28.97-1.19,43.53-3.53c27.19-4.37,46.26-8.35,61.84-12.9
			c17.99-5.26,31.66-11.5,41.72-19.05l21.39-1.67l23.42-2.05c4.9-0.43,9.02-1.87,12.25-4.28c4.29-3.24,6.85-7.96,7.43-13.67
			l0.4-3.65l0.03-0.28l0-0.29l-0.08-16.51l0-0.18l-0.01-0.18l-0.39-4.9l-0.4-4.98l-4.97,0.43l-4.9,0.43l-20.94,1.83
			c-4.42,0.39-8.12,1.37-11.29,2.99c-0.17-0.05-0.4-0.16-0.53-0.25l-0.05-0.03l-0.08-0.06c-9.46-6.6-34.55-23.79-59.35-40.77
			l0.85-8.23l0.61-5.97l0.61-5.96l-5.97,0.52l-5.98,0.52l-15.99,1.4c-13.82-9.47-41.82-28.66-46.68-32.15
			c-0.41-0.87-0.95-2.32-1.28-3.42l-0.54-1.77l-1.57-0.99l-26.15-16.37l-0.07-0.04l-0.07-0.04l-6.06-3.52L159.66,28.97L159.66,28.97
			z"/>
	</g>
</g>
<g id="Schnee">
	<linearGradient id="SVGID_2_" gradientUnits="userSpaceOnUse" x1="176.4206" y1="77.9208" x2="196.4734" y2="57.868">
		<stop  offset="0" style="stop-color:#CFD0D0"/>
		<stop  offset="0.1001" style="stop-color:#DDDDDD"/>
		<stop  offset="0.2621" style="stop-color:#ECECEC"/>
		<stop  offset="0.4441" style="stop-color:#F7F7F7"/>
		<stop  offset="0.6605" style="stop-color:#FDFDFD"/>
		<stop  offset="1" style="stop-color:#FFFFFF"/>
	</linearGradient>
	<path class="st6" d="M191.02,61.77c-0.98-1.06-1.93-4.55-1.93-4.55l-25.84-16.66l-2.33,20.88l15.66,16.63l13.93-2.46l31.25,7.52
		C221.74,83.14,191.46,62.24,191.02,61.77z"/>
	<linearGradient id="SVGID_3_" gradientUnits="userSpaceOnUse" x1="124.1646" y1="80.022" x2="142.455" y2="69.462">
		<stop  offset="0" style="stop-color:#CFD0D0"/>
		<stop  offset="0.1001" style="stop-color:#DDDDDD"/>
		<stop  offset="0.2621" style="stop-color:#ECECEC"/>
		<stop  offset="0.4441" style="stop-color:#F7F7F7"/>
		<stop  offset="0.6605" style="stop-color:#FDFDFD"/>
		<stop  offset="1" style="stop-color:#FFFFFF"/>
	</linearGradient>
	<polygon class="st7" points="120.32,73.36 140.68,66.38 145.46,76.61 	"/>
	<linearGradient id="SVGID_4_" gradientUnits="userSpaceOnUse" x1="112.9876" y1="82.9853" x2="121.173" y2="78.2595">
		<stop  offset="0" style="stop-color:#CFD0D0"/>
		<stop  offset="0.1001" style="stop-color:#DDDDDD"/>
		<stop  offset="0.2621" style="stop-color:#ECECEC"/>
		<stop  offset="0.4441" style="stop-color:#F7F7F7"/>
		<stop  offset="0.6605" style="stop-color:#FDFDFD"/>
		<stop  offset="1" style="stop-color:#FFFFFF"/>
	</linearGradient>
	<polygon class="st8" points="118.74,75.2 123.1,81.61 113.98,84.7 	"/>
</g>
<g id="Schweif">
	<linearGradient id="SVGID_5_" gradientUnits="userSpaceOnUse" x1="187.7916" y1="191.3198" x2="187.7916" y2="247.3134">
		<stop  offset="0" style="stop-color:#CFD0D0"/>
		<stop  offset="0.1001" style="stop-color:#DDDDDD"/>
		<stop  offset="0.2621" style="stop-color:#ECECEC"/>
		<stop  offset="0.4441" style="stop-color:#F7F7F7"/>
		<stop  offset="0.6605" style="stop-color:#FDFDFD"/>
		<stop  offset="1" style="stop-color:#FFFFFF"/>
	</linearGradient>
	<path class="st9" d="M77.51,210.63l-9.46,22.11c0,0,42.36,19.4,116.1,13.43c45.55-3.69,86.06-21.1,97.74-30.39
		c15.12-12.02,25.64-24.46,25.64-24.46s-2.78,2.02-4.68,3.66c-3.22,2.77-8.05,6.32-26,12.76c-20.56,7.38-53.83,13.91-79.18,16.43
		C122.75,231.61,77.51,210.63,77.51,210.63z"/>
	<g>
		<path class="st5" d="M77.08,211.46c13.65,6.25,28.01,11.14,42.77,14.62c14.76,3.48,29.93,5.55,45.23,6.28
			c30.61,1.47,61.65-2.41,91.62-10.59c-29.18,10.65-60.13,17.24-91.66,18.37c-15.75,0.56-31.63-0.25-47.38-2.6
			c-15.74-2.34-31.33-6.22-46.45-11.67L77.08,211.46z"/>
	</g>
	<g>
		<path class="st5" d="M71.63,224.12c19.32,8.32,39.6,14.47,60.41,17.65c20.8,3.22,42.08,3.39,63.03,0.59
			c5.24-0.69,10.46-1.57,15.65-2.61c5.19-1.03,10.33-2.29,15.51-3.53c10.32-2.57,20.57-5.44,30.5-9.17
			c9.92-3.73,19.53-8.37,28.07-14.7c8.59-6.27,15.94-14.12,23.49-21.69c-7.17,7.92-14.13,16.12-22.54,22.92
			c-8.36,6.85-17.96,12.08-27.86,16.35c-9.91,4.28-20.15,7.69-30.45,10.79c-10.29,3.1-20.88,5.53-31.56,7.27
			c-21.37,3.48-43.31,3.94-64.88,1.23c-21.59-2.67-42.76-8.43-62.96-16.46L71.63,224.12z"/>
	</g>
	<g>
		<path class="st2" d="M71.35,224.61c6.49,3.22,13.05,6.3,19.74,9.08c6.7,2.75,13.52,5.27,20.62,6.94
			c-7.28-0.64-14.49-2.18-21.61-3.98c-7.12-1.82-14.15-3.97-21.13-6.27L71.35,224.61z"/>
	</g>
	<g>
		<path class="st2" d="M74.81,216.77c7.8,3.73,16.28,6.57,24.88,8.95c8.62,2.37,17.43,4.26,26.31,5.79
			c8.88,1.52,17.85,2.7,26.86,3.46c9.01,0.76,18.07,1.15,27.15,0.95c-9.03,0.98-18.14,1.37-27.25,1.38
			c-9.12,0.01-18.24-0.4-27.36-1.16c-9.11-0.78-18.22-1.92-27.29-3.59c-9.07-1.7-18.1-3.86-27.02-7.21L74.81,216.77z"/>
	</g>
	<path class="st10" d="M328.6,152.23"/>
	<g>
		<path class="st5" d="M79.39,206.62c17.61,8.43,36.63,13.95,56.12,16.55c19.5,2.63,39.41,2.48,59.12,0.38
			c9.86-1.06,19.69-2.58,29.45-4.49c4.89-0.94,9.74-2.04,14.65-3.02c4.9-1,9.78-2.05,14.65-3.16c9.73-2.22,19.41-4.67,28.81-7.97
			c4.69-1.66,9.28-3.61,13.68-5.95c4.4-2.34,8.56-5.13,12.43-8.32c-3.66,3.42-7.68,6.48-11.97,9.12c-4.29,2.64-8.82,4.9-13.46,6.87
			c-9.29,3.92-18.91,7-28.55,9.83c-4.82,1.42-9.66,2.77-14.51,4.08c-4.83,1.36-9.74,2.51-14.65,3.62
			c-9.83,2.21-19.78,4.03-29.8,5.39c-20.04,2.69-40.47,3.42-60.76,1.26c-20.28-2.14-40.35-7.34-59.13-15.71L79.39,206.62z"/>
	</g>
	<g>
		<path class="st2" d="M77.63,210.25c2.3,1.26,4.81,2.39,7.35,3.44c2.55,1.05,5.16,2.03,7.79,2.96c5.27,1.85,10.62,3.53,16.02,5.08
			c-5.6-0.52-11.19-1.19-16.78-2.06c-2.8-0.43-5.59-0.93-8.39-1.51c-2.8-0.59-5.61-1.26-8.46-2.19L77.63,210.25z"/>
	</g>
</g>
<g id="Ball">
	<path class="st11" d="M52.31,174.62c10.13,0,19.95,5.41,25.12,14.94c7.52,13.86,2.37,31.19-11.49,38.7
		c-4.32,2.34-8.99,3.46-13.58,3.46c-10.13,0-19.95-5.41-25.12-14.94c-7.52-13.86-2.37-31.19,11.49-38.7
		C43.05,175.73,47.71,174.62,52.31,174.62 M52.31,169.13L52.31,169.13c-5.63,0-11.23,1.43-16.2,4.12
		c-16.5,8.95-22.64,29.65-13.7,46.15c5.96,10.99,17.44,17.82,29.95,17.82c5.63,0,11.23-1.43,16.2-4.12
		c16.5-8.95,22.64-29.65,13.7-46.15C76.3,175.95,64.82,169.13,52.31,169.13L52.31,169.13z"/>
	<g>
		<path class="st12" d="M52.33,233.14c-16.53,0-29.97-13.44-29.97-29.97s13.44-29.97,29.97-29.97s29.97,13.44,29.97,29.97
			S68.86,233.14,52.33,233.14z"/>
		<path class="st2" d="M52.33,174.62c15.77,0,28.55,12.78,28.55,28.55c0,15.77-12.78,28.55-28.55,28.55s-28.55-12.78-28.55-28.55
			C23.78,187.4,36.56,174.62,52.33,174.62 M52.33,171.78c-17.31,0-31.39,14.08-31.39,31.39s14.08,31.39,31.39,31.39
			s31.39-14.08,31.39-31.39S69.64,171.78,52.33,171.78L52.33,171.78z"/>
	</g>
	<path class="st13" d="M67.16,186.12c3.88,4.02-10.11,4.86-17.95,12.62c-8.21,8.13-10.48,22.99-14.55,18.78
		c-7.95-8.23-7.13-21.93,1.85-30.6C45.48,178.24,59.2,177.89,67.16,186.12z"/>
	<ellipse class="st2" cx="42.12" cy="200.88" rx="3.79" ry="4.02"/>
	
		<ellipse transform="matrix(0.7265 -0.6871 0.6871 0.7265 -117.3789 95.6129)" class="st2" cx="61.43" cy="195.27" rx="3.64" ry="4.02"/>
	
		<ellipse transform="matrix(0.9919 -0.1269 0.1269 0.9919 -26.9268 8.816)" class="st2" cx="55.73" cy="215.76" rx="4.12" ry="3.34"/>
	
		<ellipse transform="matrix(0.2595 -0.9657 0.9657 0.2595 -169.0062 173.8125)" class="st2" cx="28.84" cy="197.11" rx="4.02" ry="1.98"/>
	<ellipse transform="matrix(0.866 -0.5 0.5 0.866 -103.252 43.1241)" class="st2" cx="28.84" cy="214.23" rx="1.76" ry="3.58"/>
	
		<ellipse transform="matrix(0.8441 -0.5362 0.5362 0.8441 -91.869 48.7002)" class="st2" cx="37.8" cy="182.31" rx="3.58" ry="1.55"/>
	
		<ellipse transform="matrix(0.8262 -0.5634 0.5634 0.8262 -93.7566 74.8258)" class="st2" cx="74.38" cy="189.35" rx="1.41" ry="3.62"/>
	
		<ellipse transform="matrix(0.1842 -0.9829 0.9829 0.1842 -129.5645 202.1882)" class="st2" cx="57.02" cy="179.15" rx="1.55" ry="3.58"/>
	
		<ellipse transform="matrix(0.2595 -0.9657 0.9657 0.2595 -187.0667 210.733)" class="st2" cx="43.88" cy="227.35" rx="1.76" ry="3.95"/>
	
		<ellipse transform="matrix(0.2595 -0.9657 0.9657 0.2595 -146.5211 226.8338)" class="st2" cx="74.65" cy="208.96" rx="4.02" ry="2.36"/>
	
		<ellipse transform="matrix(0.9169 -0.3992 0.3992 0.9169 -84.8256 44.825)" class="st2" cx="65.2" cy="226.06" rx="3.59" ry="1.38"/>
</g>
<g id="Froni_Fighters">
	<linearGradient id="SVGID_6_" gradientUnits="userSpaceOnUse" x1="347.9737" y1="184.0057" x2="347.9737" y2="153.4737">
		<stop  offset="0" style="stop-color:#CFD0D0"/>
		<stop  offset="0.1001" style="stop-color:#DDDDDD"/>
		<stop  offset="0.2621" style="stop-color:#ECECEC"/>
		<stop  offset="0.4441" style="stop-color:#F7F7F7"/>
		<stop  offset="0.6605" style="stop-color:#FDFDFD"/>
		<stop  offset="1" style="stop-color:#FFFFFF"/>
	</linearGradient>
	<path class="st14" d="M331.89,168.61l0.44-4.56c0.32-3.12,1.72-5.38,4.21-6.79c1.77-1.01,4.34-1.66,7.7-1.96l20.94-1.83l0.55,6.87
		c-0.95-0.7-1.87-1.1-2.76-1.21c-0.88-0.11-2.14-0.09-3.76,0.05l-11.96,1.05c-0.59,0.05-1.05,0.16-1.37,0.34
		c-0.32,0.17-0.51,0.52-0.58,1.03c-0.11,0.88,0.37,1.28,1.44,1.19l11.19-0.98c2.33-0.2,4.1,0.07,5.32,0.82
		c1.22,0.75,1.91,2.07,2.08,3.95c0.04,0.44,0.08,0.89,0.12,1.33c-0.07,0.45-0.12,0.77-0.14,0.96l-0.44,3.95
		c-0.3,2.97-1.48,5.23-3.54,6.78c-1.75,1.31-4.15,2.09-7.22,2.36l-23.38,2.05l-0.5-6.99c1.43,0.66,2.61,1.06,3.54,1.2
		c0.92,0.14,2.25,0.14,3.99-0.01l11.69-1.02c0.74-0.06,1.34-0.21,1.8-0.44c0.46-0.23,0.72-0.68,0.77-1.35
		c0.06-0.56-0.1-0.93-0.49-1.1c-0.39-0.17-0.88-0.23-1.47-0.18l-11.85,1.04c-3.95,0.35-6.07-1.14-6.36-4.47
		c-0.04-0.41-0.07-0.81-0.11-1.22C331.82,169.04,331.87,168.76,331.89,168.61z"/>
	<linearGradient id="SVGID_7_" gradientUnits="userSpaceOnUse" x1="314.3549" y1="186.7584" x2="314.3549" y2="156.5995">
		<stop  offset="0" style="stop-color:#CFD0D0"/>
		<stop  offset="0.1001" style="stop-color:#DDDDDD"/>
		<stop  offset="0.2621" style="stop-color:#ECECEC"/>
		<stop  offset="0.4441" style="stop-color:#F7F7F7"/>
		<stop  offset="0.6605" style="stop-color:#FDFDFD"/>
		<stop  offset="1" style="stop-color:#FFFFFF"/>
	</linearGradient>
	<path class="st15" d="M301.04,180.3l1.47-14.42c0.15-1.69,0.24-2.72,0.26-3.09c0.02-0.37,0.01-0.84-0.04-1.39
		c-0.08-0.96-0.29-1.76-0.6-2.4l13.24-1.16l-0.16,4.54c0.77-1.85,1.71-3.14,2.82-3.85c1.11-0.71,2.68-1.16,4.71-1.33l6.7-0.59
		l-0.98,9.18c-0.61-0.58-1.36-0.94-2.24-1.09c-0.89-0.14-1.94-0.16-3.16-0.06l-2.71,0.24c-1.37,0.12-2.5,0.57-3.4,1.36
		c-0.9,0.79-1.42,1.86-1.56,3.21l-0.94,9.07c-0.15,1.69-0.24,2.72-0.26,3.09c-0.02,0.37-0.01,0.84,0.04,1.39
		c0.08,0.89,0.28,1.69,0.6,2.4l-15.57,1.36c0.42-0.67,0.74-1.35,0.94-2.04C300.57,183.46,300.86,181.99,301.04,180.3z"/>
	<linearGradient id="SVGID_8_" gradientUnits="userSpaceOnUse" x1="108.7742" y1="205.1856" x2="108.7742" y2="164.9954">
		<stop  offset="0" style="stop-color:#CFD0D0"/>
		<stop  offset="0.1001" style="stop-color:#DDDDDD"/>
		<stop  offset="0.2621" style="stop-color:#ECECEC"/>
		<stop  offset="0.4441" style="stop-color:#F7F7F7"/>
		<stop  offset="0.6605" style="stop-color:#FDFDFD"/>
		<stop  offset="1" style="stop-color:#FFFFFF"/>
	</linearGradient>
	<path class="st16" d="M92.66,199.5l2.71-26.28c0.09-0.64,0.1-1.36,0.03-2.17c-0.11-1.25-0.45-2.33-1.01-3.24l32.23-2.82l0.39,6.97
		c-0.88-0.26-1.88-0.4-3.01-0.43c-1.13-0.03-2.33,0.01-3.58,0.12l-0.99,0.09l-10.15,0.89l-0.94,8.98l12.25-1.07
		c1.66-0.14,3.25-0.6,4.77-1.36l-0.84,8.25c-0.85-0.37-1.74-0.59-2.67-0.66c-0.93-0.07-1.97-0.05-3.11,0.05l-11.04,0.97l-1.08,10.49
		c-0.09,0.64-0.1,1.36-0.03,2.17c0.11,1.25,0.44,2.33,1.01,3.25l-17.05,1.49c0.23-0.28,0.42-0.52,0.55-0.72
		C91.94,203.1,92.46,201.45,92.66,199.5z"/>
	<linearGradient id="SVGID_9_" gradientUnits="userSpaceOnUse" x1="135.1941" y1="201.9847" x2="135.1941" y2="163.3489">
		<stop  offset="0" style="stop-color:#CFD0D0"/>
		<stop  offset="0.1001" style="stop-color:#DDDDDD"/>
		<stop  offset="0.2621" style="stop-color:#ECECEC"/>
		<stop  offset="0.4441" style="stop-color:#F7F7F7"/>
		<stop  offset="0.6605" style="stop-color:#FDFDFD"/>
		<stop  offset="1" style="stop-color:#FFFFFF"/>
	</linearGradient>
	<path class="st17" d="M127.81,195.56l1.47-14.34c0.15-1.68,0.24-2.7,0.26-3.07c0.02-0.37,0.01-0.83-0.04-1.38
		c-0.08-0.95-0.28-1.75-0.6-2.39l14.46-1.26l-2.14,20.66c-0.13,1.01-0.22,1.76-0.25,2.24c-0.1,0.93-0.13,1.68-0.08,2.23
		c0.04,0.51,0.11,0.89,0.18,1.12c0.08,0.23,0.25,0.65,0.53,1.26l-15.56,1.36c0.42-0.7,0.73-1.4,0.93-2.08
		C127.34,198.65,127.62,197.2,127.81,195.56z M144.35,163.35l-0.72,7.01l-13.35,1.17l0.72-7.01L144.35,163.35z"/>
	<linearGradient id="SVGID_10_" gradientUnits="userSpaceOnUse" x1="166.0322" y1="210.74" x2="166.0322" y2="169.2508">
		<stop  offset="0" style="stop-color:#CFD0D0"/>
		<stop  offset="0.1001" style="stop-color:#DDDDDD"/>
		<stop  offset="0.2621" style="stop-color:#ECECEC"/>
		<stop  offset="0.4441" style="stop-color:#F7F7F7"/>
		<stop  offset="0.6605" style="stop-color:#FDFDFD"/>
		<stop  offset="1" style="stop-color:#FFFFFF"/>
	</linearGradient>
	<path class="st18" d="M146.44,192.15l1.2-11.67c0.26-2.58,1.17-4.61,2.75-6.11c1.57-1.49,3.63-2.35,6.17-2.57l11.04-0.97
		c1.18-0.1,2.08-0.06,2.71,0.13c0.63,0.19,1.2,0.7,1.72,1.54l0.65-2.11l13.08-1.14c-0.59,0.87-0.99,1.73-1.19,2.58
		c-0.2,0.85-0.37,1.97-0.51,3.35l-2.26,21.83c-0.44,4.3-1.68,7.3-3.72,9c-1.8,1.49-4.92,2.43-9.37,2.82l-21.8,1.91l-0.21-6.82
		c0.72,0.57,1.53,0.91,2.45,1.01c0.92,0.11,2.06,0.1,3.42-0.02l11.15-0.98c1.62-0.14,2.74-0.49,3.36-1.04
		c0.62-0.55,0.98-1.3,1.08-2.24l0.44-4.49c-0.55,0.9-1.35,1.55-2.39,1.93c-0.68,0.24-1.67,0.42-2.96,0.54l-7.95,0.7
		c-2.69,0.23-4.72,0.02-6.12-0.63c-1.66-0.78-2.59-2.28-2.78-4.48c-0.03-0.29-0.05-0.56-0.07-0.8
		C146.3,193.17,146.34,192.75,146.44,192.15z M162.4,193.53l3.7-0.32c1.14-0.1,1.92-0.4,2.34-0.9c0.42-0.5,0.69-1.37,0.8-2.6
		l1.07-10.66c0.09-0.64,0.12-1.22,0.07-1.73c-0.05-0.59-0.25-0.98-0.6-1.17c-0.35-0.19-1-0.24-1.96-0.16l-4.08,0.36
		c-0.85,0.07-1.46,0.32-1.85,0.75c-0.39,0.42-0.65,1.2-0.77,2.32l-1.14,11.11c-0.03,0.52-0.03,0.89-0.01,1.11
		C160.08,193.04,160.9,193.67,162.4,193.53z"/>
	<linearGradient id="SVGID_11_" gradientUnits="userSpaceOnUse" x1="205.7957" y1="196.5291" x2="205.7957" y2="157.8932">
		<stop  offset="0" style="stop-color:#CFD0D0"/>
		<stop  offset="0.1001" style="stop-color:#DDDDDD"/>
		<stop  offset="0.2621" style="stop-color:#ECECEC"/>
		<stop  offset="0.4441" style="stop-color:#F7F7F7"/>
		<stop  offset="0.6605" style="stop-color:#FDFDFD"/>
		<stop  offset="1" style="stop-color:#FFFFFF"/>
	</linearGradient>
	<path class="st19" d="M187.97,190.1l2.45-24.09c0.09-0.71,0.17-1.45,0.25-2.22c0.08-0.77,0.09-1.52,0.03-2.25
		c-0.07-0.81-0.29-1.6-0.65-2.39l14.46-1.27l-1.18,11.34c0.46-0.63,0.97-1.09,1.52-1.38c0.55-0.29,1.21-0.47,1.98-0.54l10.43-0.91
		c2.39-0.21,4.29,0.13,5.7,1c1.41,0.88,2.21,2.33,2.38,4.35c0.07,0.77,0.06,1.51-0.03,2.23l-1.26,12.34
		c-0.13,1.01-0.22,1.76-0.25,2.25c-0.1,0.94-0.13,1.68-0.08,2.23c0.05,0.51,0.11,0.89,0.18,1.12c0.08,0.24,0.25,0.66,0.53,1.26
		l-15.51,1.36c0.58-0.94,1.01-2,1.28-3.17c0.13-0.6,0.3-1.69,0.49-3.27l1.27-12.79c0.05-0.3,0.07-0.54,0.08-0.7
		c0-0.17,0-0.34-0.02-0.53c-0.05-0.62-0.28-1.11-0.68-1.44c-0.4-0.34-1.08-0.46-2.03-0.38l-3.64,0.32c-0.96,0.08-1.67,0.4-2.14,0.94
		c-0.47,0.54-0.77,1.32-0.91,2.33l-1.25,12.45c-0.13,1.01-0.23,1.85-0.28,2.5c-0.05,0.65-0.05,1.31,0.01,1.97
		c0.07,0.81,0.29,1.61,0.65,2.39l-15.56,1.36c0.42-0.67,0.73-1.34,0.93-2.03C187.51,193.25,187.79,191.78,187.97,190.1z"/>
	<linearGradient id="SVGID_12_" gradientUnits="userSpaceOnUse" x1="243.2" y1="191.8373" x2="243.2" y2="157.5532">
		<stop  offset="0" style="stop-color:#CFD0D0"/>
		<stop  offset="0.1001" style="stop-color:#DDDDDD"/>
		<stop  offset="0.2621" style="stop-color:#ECECEC"/>
		<stop  offset="0.4441" style="stop-color:#F7F7F7"/>
		<stop  offset="0.6605" style="stop-color:#FDFDFD"/>
		<stop  offset="1" style="stop-color:#FFFFFF"/>
	</linearGradient>
	<path class="st20" d="M231.26,184.08l1.46-13.86l-4.14,0.36l0.54-5.22l4.14-0.36l0.56-5.72l13.36-1.73l-0.62,6.28l11.26-0.98
		l-0.54,5.22l-11.26,0.98l-1.32,12.85c-0.09,1.05-0.12,1.79-0.08,2.23c0.07,0.77,0.35,1.29,0.86,1.54c0.5,0.25,1.42,0.32,2.74,0.21
		l3.59-0.31c1.07-0.09,2.05-0.28,2.95-0.56c0.9-0.28,1.75-0.74,2.55-1.36l-1.74,6.82l-14.07,1.23c-3.24,0.28-5.58,0.15-7.04-0.39
		c-1.95-0.72-3.04-2.31-3.25-4.78c-0.04-0.44-0.06-0.78-0.06-1.02C231.13,185.27,231.18,184.79,231.26,184.08z"/>
	<linearGradient id="SVGID_13_" gradientUnits="userSpaceOnUse" x1="278.8642" y1="189.3299" x2="278.8642" y2="160.0729">
		<stop  offset="0" style="stop-color:#CFD0D0"/>
		<stop  offset="0.1001" style="stop-color:#DDDDDD"/>
		<stop  offset="0.2621" style="stop-color:#ECECEC"/>
		<stop  offset="0.4441" style="stop-color:#F7F7F7"/>
		<stop  offset="0.6605" style="stop-color:#FDFDFD"/>
		<stop  offset="1" style="stop-color:#FFFFFF"/>
	</linearGradient>
	<path class="st21" d="M296.43,175.82l-22.46,1.96l-0.24,2.3c-0.06,0.56-0.07,1.06-0.03,1.5c0.07,0.85,0.4,1.38,0.97,1.61
		c0.58,0.23,1.51,0.28,2.8,0.17l12.08-1.06c1.62-0.14,2.82-0.34,3.59-0.59c0.77-0.25,1.56-0.65,2.37-1.21l-1.65,6.59l-24.23,2.12
		c-2.94,0.26-5.11,0.02-6.51-0.71c-1.56-0.83-2.43-2.4-2.64-4.72c-0.08-0.92-0.06-1.94,0.07-3.06l0.94-8.92
		c0.34-3.33,1.31-5.79,2.91-7.37c1.6-1.59,4.04-2.52,7.32-2.81l16.72-1.46c2.91-0.25,5.05-0.01,6.43,0.74
		c1.38,0.75,2.17,2.23,2.36,4.44c0.08,0.92,0.06,2-0.05,3.23L296.43,175.82z M283.84,171.69l0.3-2.97c0.07-0.52,0.08-0.99,0.05-1.39
		c-0.05-0.51-0.2-0.9-0.46-1.16c-0.26-0.25-0.73-0.35-1.39-0.29l-5.24,0.46c-0.74,0.06-1.26,0.32-1.57,0.78
		c-0.31,0.45-0.52,1.15-0.62,2.08l-0.38,3.31L283.84,171.69z"/>
	<g>
		<linearGradient id="SVGID_14_" gradientUnits="userSpaceOnUse" x1="68.6119" y1="165.0266" x2="68.6119" y2="112.2957">
			<stop  offset="0" style="stop-color:#CFD0D0"/>
			<stop  offset="0.1001" style="stop-color:#DDDDDD"/>
			<stop  offset="0.2621" style="stop-color:#ECECEC"/>
			<stop  offset="0.4441" style="stop-color:#F7F7F7"/>
			<stop  offset="0.6605" style="stop-color:#FDFDFD"/>
			<stop  offset="1" style="stop-color:#FFFFFF"/>
		</linearGradient>
		<path class="st22" d="M47.47,157.57l3.55-34.48c0.12-0.84,0.14-1.78,0.04-2.84c-0.14-1.64-0.58-3.06-1.32-4.26l42.28-3.7
			l0.51,9.15c-1.15-0.34-2.47-0.53-3.95-0.57c-1.49-0.04-3.05,0.01-4.69,0.16l-1.3,0.11l-13.32,1.17l-1.23,11.78l16.07-1.41
			c2.17-0.19,4.26-0.79,6.26-1.79l-1.1,10.82c-1.11-0.49-2.28-0.77-3.5-0.86c-1.22-0.09-2.58-0.07-4.08,0.07l-14.48,1.27
			l-1.42,13.77c-0.12,0.84-0.14,1.79-0.04,2.85c0.14,1.64,0.58,3.06,1.32,4.26l-22.37,1.96c0.31-0.36,0.55-0.68,0.72-0.94
			C46.52,162.29,47.2,160.12,47.47,157.57z"/>
	</g>
	<g>
		<linearGradient id="SVGID_15_" gradientUnits="userSpaceOnUse" x1="110.9711" y1="160.9537" x2="110.9711" y2="121.5347">
			<stop  offset="0" style="stop-color:#CFD0D0"/>
			<stop  offset="0.1001" style="stop-color:#DDDDDD"/>
			<stop  offset="0.2621" style="stop-color:#ECECEC"/>
			<stop  offset="0.4441" style="stop-color:#F7F7F7"/>
			<stop  offset="0.6605" style="stop-color:#FDFDFD"/>
			<stop  offset="1" style="stop-color:#FFFFFF"/>
		</linearGradient>
		<path class="st23" d="M93.57,152.51l1.93-18.85c0.2-2.21,0.31-3.55,0.34-4.04c0.03-0.49,0.01-1.1-0.05-1.82
			c-0.11-1.25-0.37-2.3-0.79-3.14l17.3-1.51l-0.21,5.93c1-2.42,2.23-4.1,3.68-5.03c1.45-0.93,3.5-1.51,6.16-1.74l8.76-0.77l-1.28,12
			c-0.8-0.76-1.77-1.23-2.93-1.42c-1.16-0.19-2.54-0.22-4.13-0.08l-3.55,0.31c-1.79,0.16-3.27,0.75-4.44,1.77
			c-1.18,1.03-1.86,2.42-2.04,4.19l-1.22,11.85c-0.2,2.21-0.31,3.55-0.34,4.04c-0.03,0.49-0.01,1.1,0.05,1.82
			c0.1,1.16,0.36,2.21,0.79,3.14l-20.35,1.78c0.56-0.88,0.96-1.76,1.23-2.66C92.96,156.65,93.33,154.72,93.57,152.51z"/>
	</g>
	<g>
		<linearGradient id="SVGID_16_" gradientUnits="userSpaceOnUse" x1="156.8621" y1="156.4513" x2="156.8621" y2="117.9885">
			<stop  offset="0" style="stop-color:#CFD0D0"/>
			<stop  offset="0.1001" style="stop-color:#DDDDDD"/>
			<stop  offset="0.2621" style="stop-color:#ECECEC"/>
			<stop  offset="0.4441" style="stop-color:#F7F7F7"/>
			<stop  offset="0.6605" style="stop-color:#FDFDFD"/>
			<stop  offset="1" style="stop-color:#FFFFFF"/>
		</linearGradient>
		<path class="st24" d="M146.7,120.13l23.02-2.01c3.76-0.33,6.59-0.04,8.47,0.86c2.18,1.07,3.41,3.08,3.66,6.01
			c0.05,0.63,0.07,1.12,0.06,1.49c-0.02,0.37-0.06,1.01-0.12,1.94l-1.51,14.4c-0.71,6.96-4.49,10.73-11.34,11.33l-24.4,2.13
			c-3.91,0.34-6.8,0.13-8.66-0.63c-2.37-0.96-3.69-2.95-3.95-5.99c-0.04-0.43-0.07-0.81-0.1-1.12c-0.03-0.31,0.01-0.94,0.13-1.87
			l1.57-15.35c0.33-2.89,1.56-5.39,3.69-7.49c2.13-2.1,4.64-3.28,7.53-3.54L146.7,120.13z M151.04,130.55l-1.45,14.28
			c-0.06,0.4-0.06,0.93-0.01,1.61c0.15,1.74,1.41,2.5,3.78,2.3l4.92-0.43c1.54-0.14,2.66-0.58,3.35-1.35
			c0.69-0.76,1.11-1.93,1.26-3.5l1.37-13.54c0.02-0.29,0.03-0.6,0.03-0.91c0-0.32-0.01-0.55-0.02-0.69
			c-0.17-1.93-1.63-2.78-4.38-2.53l-4.2,0.37C152.93,126.37,151.38,127.85,151.04,130.55z"/>
	</g>
	<g>
		<linearGradient id="SVGID_17_" gradientUnits="userSpaceOnUse" x1="210.0459" y1="152.7948" x2="210.0459" y2="113.1717">
			<stop  offset="0" style="stop-color:#CFD0D0"/>
			<stop  offset="0.1001" style="stop-color:#DDDDDD"/>
			<stop  offset="0.2621" style="stop-color:#ECECEC"/>
			<stop  offset="0.4441" style="stop-color:#F7F7F7"/>
			<stop  offset="0.6605" style="stop-color:#FDFDFD"/>
			<stop  offset="1" style="stop-color:#FFFFFF"/>
		</linearGradient>
		<path class="st25" d="M186.82,144.35l1.93-18.85c0.2-2.21,0.31-3.55,0.34-4.04c0.03-0.49,0.01-1.09-0.05-1.82
			c-0.11-1.25-0.37-2.3-0.79-3.14l17.09-1.5l0.31,3.55c0.9-1.44,1.84-2.46,2.83-3.06c0.99-0.6,2.31-0.97,3.95-1.11l13.03-1.14
			c3.14-0.27,5.54,0.24,7.21,1.56c1.67,1.31,2.63,3.32,2.86,6.02c0.08,0.92,0.06,2.06-0.06,3.43l-1.52,15.16
			c-0.2,2.21-0.31,3.55-0.34,4.04c-0.03,0.49-0.01,1.1,0.05,1.82c0.1,1.16,0.36,2.21,0.79,3.14l-20.42,1.79
			c0.78-1.14,1.32-2.4,1.64-3.79c0.22-0.84,0.42-2.18,0.6-3.99l1.77-17.3c0.1-1.08,0.14-1.79,0.11-2.13
			c-0.07-0.77-0.34-1.33-0.8-1.68c-0.47-0.35-1.31-0.47-2.51-0.36l-5.29,0.46c-1.16,0.1-1.99,0.45-2.5,1.06
			c-0.51,0.6-0.83,1.52-0.96,2.75l-1.74,16.79c-0.2,2.21-0.31,3.55-0.34,4.04c-0.03,0.49-0.01,1.1,0.05,1.82
			c0.1,1.16,0.36,2.21,0.79,3.14l-20.35,1.78c0.55-0.92,0.96-1.86,1.21-2.81C186.25,148.29,186.62,146.41,186.82,144.35z"/>
	</g>
	<g>
		<linearGradient id="SVGID_18_" gradientUnits="userSpaceOnUse" x1="251.8239" y1="147.9549" x2="251.8239" y2="97.2642">
			<stop  offset="0" style="stop-color:#CFD0D0"/>
			<stop  offset="0.1001" style="stop-color:#DDDDDD"/>
			<stop  offset="0.2621" style="stop-color:#ECECEC"/>
			<stop  offset="0.4441" style="stop-color:#F7F7F7"/>
			<stop  offset="0.6605" style="stop-color:#FDFDFD"/>
			<stop  offset="1" style="stop-color:#FFFFFF"/>
		</linearGradient>
		<path class="st26" d="M242.14,139.52l1.93-18.81c0.2-2.2,0.31-3.55,0.34-4.03c0.03-0.49,0.01-1.09-0.05-1.82
			c-0.11-1.25-0.37-2.3-0.78-3.13l18.97-1.66l-2.81,27.11c-0.18,1.33-0.28,2.31-0.33,2.94c-0.14,1.23-0.17,2.2-0.11,2.92
			c0.06,0.67,0.14,1.17,0.24,1.47c0.1,0.31,0.33,0.86,0.69,1.65l-20.42,1.79c0.55-0.92,0.96-1.83,1.22-2.73
			C241.52,143.58,241.89,141.68,242.14,139.52z M263.83,97.26l-0.95,9.2L245.37,108l0.95-9.2L263.83,97.26z"/>
	</g>
</g>
</svg>
