<?xml version="1.0" encoding="UTF-8" standalone="no"?>
<svg
   xmlns:dc="http://purl.org/dc/elements/1.1/"
   xmlns:cc="http://creativecommons.org/ns#"
   xmlns:rdf="http://www.w3.org/1999/02/22-rdf-syntax-ns#"
   xmlns:svg="http://www.w3.org/2000/svg"
   xmlns="http://www.w3.org/2000/svg"
   viewBox="0 0 68.173332 36.720001"
   height="36.720001"
   width="68.173332"
   xml:space="preserve"
   id="svg2"
   version="1.1"><metadata
     id="metadata8"><rdf:RDF><cc:Work
         rdf:about=""><dc:format>image/svg+xml</dc:format><dc:type
           rdf:resource="http://purl.org/dc/dcmitype/StillImage" /></cc:Work></rdf:RDF></metadata><defs
     id="defs6" /><g
     transform="matrix(1.3333333,0,0,-1.3333333,0,36.72)"
     id="g10"><g
       transform="scale(0.1)"
       id="g12"><path
         id="path14"
         style="fill:#163572;fill-opacity:1;fill-rule:nonzero;stroke:none"
         d="m 401.957,123.262 c 10.352,0 63.219,-19.016 85.039,-19.016 8.672,0 14.266,2.512 18.742,7.832 3.914,4.758 5.594,9.504 5.594,10.91 0,10.34 -12.586,16.778 -54.547,21.535 -29.375,3.36 -52.308,6.434 -77.484,10.625 -7.832,1.395 -14.543,3.086 -14.543,7.274 0,5.32 7.273,6.711 17.621,6.711 23.777,0 63.777,-12.863 68.535,-12.863 2.793,0 4.191,2.238 4.191,4.484 0,3.621 -2.796,3.621 -7.273,4.742 -12.867,3.363 -47.551,12.035 -66.012,12.035 -11.191,0 -26.578,-3.359 -26.578,-15.109 0,-6.992 5.321,-13.43 22.664,-16.223 26.012,-4.195 47.832,-7.273 78.039,-10.906 4.758,-0.555 43.356,-5.039 43.356,-12.871 0,-3.074 -4.473,-8.387 -10.067,-8.387 -24.617,0 -75.527,18.465 -87.832,18.465 -7.832,0 -15.386,-5.32 -15.386,-13.992 0,-10.07 9.511,-19.2971 38.882,-31.3283 11.188,-4.4766 25.176,-6.9922 25.176,-12.0313 0,-4.7461 -7,-7.2773 -10.914,-7.2773 -32.168,0 -73.285,43.3709 -94.547,51.7579 -16.781,6.711 -43.914,9.504 -74.125,9.504 -36.64,0 -72.168,-4.192 -76.925,-8.379 C 159.16,90.2539 112.445,79.0742 66.0117,79.0742 c -22.3789,0 -45.875,-18.1836 -51.75,-18.1836 -3.3554,0 -4.47264,1.6797 -4.47264,4.7461 0,4.1992 2.23824,10.9063 5.03514,13.9922 12.586,13.9844 35.2461,14.8242 53.4297,18.457 22.6563,4.4841 37.1991,8.3911 59.0161,18.4571 5.597,2.531 12.308,5.324 12.308,7.832 0,0.293 0,0.84 -0.558,1.121 -1.122,0.844 -2.239,1.125 -3.918,1.125 -4.196,0 -9.789,-2.246 -12.305,-3.359 -15.945,-6.992 -33.2853,-12.586 -55.6681,-16.785 -10.3476,-1.954 -18.1797,-3.352 -24.8945,-3.352 -10.6289,0 -16.7813,4.758 -16.7813,8.117 0,3.629 11.1875,13.426 18.7422,13.426 3.3516,0 8.6719,-0.566 13.4258,-0.566 77.2029,0 126.1519,45.871 126.1519,58.468 0,13.426 -43.914,32.723 -79.437,47.832 -6.9962,3.067 -15.9454,5.594 -15.9454,10.899 0,3.086 2.5196,5.605 7.5508,5.605 15.9496,0 68.8166,-37.773 81.6796,-44.484 4.758,-2.508 10.348,-3.633 16.781,-3.633 16.504,0 82.524,6.426 116.086,12.871 17.621,3.352 22.102,7.824 22.102,13.703 0,11.192 -10.91,13.145 -21.539,15.391 -9.512,1.953 -18.742,3.914 -18.742,9.5 0,3.078 3.078,5.039 7.832,5.039 18.464,0 41.679,-26.855 56.785,-26.855 6.992,0 13.426,4.757 13.426,10.91 0,4.199 -3.36,8.953 -11.747,13.152 -6.714,3.352 -14.828,7.266 -14.828,10.91 0,2.508 2.239,3.348 3.918,3.348 7.27,0 15.379,-6.707 20.137,-10.906 13.43,-11.184 13.43,-24.055 27.41,-24.055 8.117,0 50.356,9.785 53.153,9.785 3.074,0 4.476,-1.953 4.476,-5.586 l -0.281,-13.426 9.23,0.555 c 0.282,3.078 0.282,12.305 0.282,15.664 0,9.512 -5.875,12.305 -12.313,12.305 -5.871,0 -44.754,-10.906 -53.422,-10.906 -10.074,0 -9.512,13.144 -27.695,27.41 -5.598,4.484 -13.145,7.832 -20.141,7.832 -11.465,0 -15.101,-8.387 -15.101,-12.586 0,-6.992 9.789,-12.59 20.14,-17.344 11.465,-5.312 7.547,-8.664 3.075,-8.664 -10.629,0 -35.805,27.414 -57.067,27.414 -11.746,0 -16.504,-8.398 -16.504,-13.437 0,-10.344 10.91,-15.938 21.539,-17.618 9.789,-1.679 18.461,-2.793 18.461,-6.718 0,0 0,-0.274 0,-0.559 -0.554,-3.914 -13.422,-5.586 -14.82,-5.867 -37.484,-7.278 -107.414,-12.59 -113.566,-12.59 -5.317,0 -10.075,0.84 -13.989,3.078 -11.75,6.707 -65.457,44.754 -84.4763,44.754 -11.4649,0 -16.5039,-7.273 -16.5039,-14.266 0,-7.558 8.3906,-12.863 19.8632,-17.617 37.762,-15.664 74.402,-32.734 74.402,-41.125 0,-6.992 -44.754,-49.238 -115.2457,-49.238 -5.8711,0 -10.6289,0.84 -14.2656,0.84 -10.9063,0 -29.6485,-13.699 -29.6485,-23.211 0,-5.313 4.4727,-9.516 12.586,-13.4299 C 4.75,89.1328 0,74.8711 0,64.5234 0,53.8867 5.3125,51.3789 9.78906,51.3789 c 15.66404,0 33.28904,18.1719 55.38284,18.7383 56.5081,1.3984 98.1831,11.4648 133.4331,42.8048 7.27,3.914 39.161,6.988 71.606,6.988 28.25,0 57.062,-1.676 70.488,-8.668 C 376.504,92.5 400.84,58.3672 440,58.3672 c 12.871,0 22.379,11.1836 22.379,17.3476 0,7.8321 -10.348,12.3047 -33.844,20.1368 -17.066,5.5934 -33.008,15.1054 -33.008,22.3824 0,3.633 2.239,5.028 6.43,5.028" /><path
         id="path16"
         style="fill:#ce0f3e;fill-opacity:1;fill-rule:nonzero;stroke:none"
         d="m 457.906,223.965 c -16.504,0 -29.933,-13.426 -29.933,-29.93 0,-16.504 13.429,-29.933 29.933,-29.933 16.782,0 30.207,13.429 30.207,29.933 0,16.504 -13.425,29.93 -30.207,29.93" /><path
         id="path18"
         style="fill:#163572;fill-opacity:1;fill-rule:nonzero;stroke:none"
         d="m 392.168,233.469 c -5.313,-0.832 -9.23,-4.192 -8.672,-7.551 0.563,-3.633 5.039,-6.152 10.352,-5.313 5.312,0.84 9.511,4.2 8.949,7.559 -0.555,3.633 -5.031,6.145 -10.629,5.305" /><path
         id="path20"
         style="fill:#ffffff;fill-opacity:1;fill-rule:nonzero;stroke:none"
         d="m 458.461,213.332 c 0,-5.312 -6.715,-10.91 -11.188,-10.91 -3.636,0 -4.753,2.246 -4.753,5.039 0,4.473 5.875,10.344 11.187,10.344 4.754,0 4.754,-4.192 4.754,-4.473" /><path
         id="path22"
         style="fill:#163572;fill-opacity:1;fill-rule:nonzero;stroke:none"
         d="m 20.6133,15.0781 c 0,1.4375 -0.2188,2.7657 -0.6563,3.9844 -0.4414,1.2109 -1.0937,2.2578 -1.9609,3.1172 -0.8633,0.8672 -1.9531,1.543 -3.2734,2.0195 -1.3204,0.4883 -2.8594,0.7344 -4.6172,0.7344 H 6.76953 V 4.92188 h 3.38277 c 1.9024,0 3.5157,0.28125 4.836,0.83984 1.3203,0.55859 2.3945,1.30078 3.2305,2.23437 0.832,0.94141 1.4453,2.02341 1.8242,3.23441 0.3828,1.2187 0.5703,2.5 0.5703,3.8476 z m 5.6758,0.086 c 0,-2.168 -0.375,-4.1485 -1.125,-5.95316 C 24.418,7.41016 23.3398,5.85156 21.9336,4.55078 20.5273,3.24219 18.8047,2.23828 16.7695,1.51563 14.7305,0.800781 12.4375,0.441406 9.88672,0.441406 H 1.44531 V 29.4141 h 8.79299 c 2.6367,0 4.9531,-0.3399 6.9492,-1.0352 1.9922,-0.6914 3.6602,-1.6601 5.0117,-2.8984 1.3438,-1.25 2.3672,-2.7461 3.0547,-4.5117 0.6875,-1.7579 1.0352,-3.6915 1.0352,-5.8047" /><path
         id="path24"
         style="fill:#163572;fill-opacity:1;fill-rule:nonzero;stroke:none"
         d="m 42.7734,13.1445 c -0.0312,0.5664 -0.1211,1.1133 -0.2851,1.6719 -0.1602,0.5469 -0.4063,1.0352 -0.7461,1.4844 -0.3359,0.4375 -0.7461,0.8008 -1.2305,1.0625 -0.4804,0.2656 -1.0625,0.4023 -1.7383,0.4023 -0.6445,0 -1.2148,-0.1367 -1.7148,-0.4023 -0.4961,-0.2617 -0.9219,-0.6172 -1.2734,-1.043 -0.3516,-0.4297 -0.625,-0.9297 -0.8164,-1.4844 -0.1875,-0.5664 -0.2813,-1.125 -0.2813,-1.6914 z M 34.8203,9.45313 c 0.0274,-0.76954 0.1953,-1.47266 0.5039,-2.12891 0.3047,-0.65234 0.7266,-1.21094 1.2539,-1.6875 0.5274,-0.47266 1.1407,-0.83203 1.8438,-1.08594 0.7031,-0.2539 1.4492,-0.37109 2.2422,-0.37109 0.9961,0 1.9179,0.11719 2.7695,0.35156 0.8477,0.23438 1.7305,0.59766 2.6406,1.09375 L 47.3477,2.26563 C 46.1758,1.44531 44.9297,0.867188 43.6094,0.519531 42.2891,0.175781 41.0156,0 39.7852,0 37.9688,0 36.4063,0.304688 35.0977,0.898438 33.7891,1.50391 32.7109,2.30469 31.8711,3.32031 c -0.8438,1.00391 -1.4648,2.16797 -1.8594,3.47657 -0.4023,1.30078 -0.6015,2.65625 -0.6015,4.06252 0,1.4961 0.2148,2.8906 0.6445,4.1992 0.4219,1.3008 1.0547,2.4531 1.8828,3.4492 0.8281,0.9961 1.8242,1.7852 2.9844,2.3516 1.164,0.5781 2.4883,0.8594 3.9844,0.8594 1.4062,0 2.6796,-0.254 3.8242,-0.7696 1.1406,-0.5078 2.1289,-1.2422 2.9492,-2.1797 0.8203,-0.9375 1.4492,-2.0586 1.8906,-3.3789 0.4375,-1.3164 0.6563,-2.7812 0.6563,-4.4023 V 9.45313 H 34.8203" /><path
         id="path26"
         style="fill:#163572;fill-opacity:1;fill-rule:nonzero;stroke:none"
         d="m 66.1211,11.1719 c 0,0.8125 -0.1367,1.5937 -0.3984,2.3242 -0.2618,0.7344 -0.6446,1.375 -1.1407,1.9336 -0.5,0.5586 -1.1015,1.0078 -1.8047,1.3476 -0.7031,0.3321 -1.5078,0.5 -2.4179,0.5 -0.6719,0 -1.2383,-0.0703 -1.6914,-0.2148 -0.4532,-0.1484 -0.8711,-0.293 -1.25,-0.4414 V 4.70703 c 0.4101,-0.14453 0.8086,-0.2539 1.2031,-0.3125 0.3984,-0.05859 0.8594,-0.08594 1.3906,-0.08594 0.8789,0 1.6914,0.17579 2.4414,0.52735 0.7461,0.35156 1.3907,0.83984 1.9336,1.45312 0.5391,0.61719 0.9649,1.33985 1.2735,2.17969 0.3086,0.82813 0.4609,1.72655 0.4609,2.70315 z m 5.2773,0.4414 c 0,-1.82814 -0.332,-3.44924 -0.9921,-4.88283 C 69.7461,5.29297 68.8516,4.07422 67.7227,3.07422 66.5977,2.07813 65.2773,1.32031 63.7695,0.789063 62.2617,0.265625 60.668,0 59,0 56.1875,0 53.8984,0.496094 52.1406,1.49219 V 31.5625 h 5.2774 v -10.457 c 0.6133,0.1758 1.25,0.3203 1.9101,0.4375 0.6563,0.1172 1.3711,0.1758 2.1328,0.1758 1.2891,0 2.5274,-0.2149 3.7149,-0.6329 1.1875,-0.4296 2.2422,-1.0546 3.164,-1.8945 0.9219,-0.832 1.6641,-1.8867 2.2227,-3.1445 0.5547,-1.2617 0.8359,-2.7344 0.8359,-4.4336" /><path
         id="path28"
         style="fill:#163572;fill-opacity:1;fill-rule:nonzero;stroke:none"
         d="m 87.0898,16.3594 c -0.4375,0.2617 -0.8789,0.4375 -1.3164,0.5273 -0.4414,0.086 -0.8203,0.125 -1.1445,0.125 -0.6133,0 -1.2617,-0.1445 -1.9336,-0.4375 -0.6719,-0.2929 -1.3633,-0.7617 -2.0664,-1.4101 V 0.441406 H 75.3516 V 21.2305 h 4.4414 l 0.5742,-2.1953 c 1.082,0.9375 2.0625,1.6211 2.9414,2.0507 0.8828,0.418 1.8203,0.6329 2.8125,0.6329 0.5,0 1.0078,-0.0782 1.5195,-0.2266 0.5157,-0.1445 0.9727,-0.3594 1.3828,-0.6524 l -1.9336,-4.4804" /><path
         id="path30"
         style="fill:#163572;fill-opacity:1;fill-rule:nonzero;stroke:none"
         d="M 105.203,0.441406 104.277,2.51172 C 103.547,1.83594 102.652,1.25 101.598,0.753906 100.543,0.253906 99.3125,0 97.9063,0 97.2305,0 96.4844,0.109375 95.6641,0.332031 94.8438,0.546875 94.082,0.949219 93.375,1.54297 92.6719,2.12891 92.082,2.94922 91.5977,4.00391 91.1133,5.05859 90.8672,6.41406 90.8672,8.08594 V 21.2305 h 5.2812 V 8.39844 c 0,-1.32031 0.2969,-2.35156 0.8985,-3.10547 0.6015,-0.74219 1.5469,-1.11328 2.8359,-1.11328 0.8472,0 1.6212,0.17578 2.3082,0.54687 0.692,0.36328 1.25,0.75391 1.692,1.16407 V 21.2305 h 5.277 V 6.19922 c 0,-1.60938 0.02,-2.83984 0.063,-3.6875 0.047,-0.85156 0.156,-1.54297 0.332,-2.070314 h -4.352" /><path
         id="path32"
         style="fill:#163572;fill-opacity:1;fill-rule:nonzero;stroke:none"
         d="M 127.973,0.441406 V 12.6641 c 0,0.5312 -0.035,1.0586 -0.106,1.6054 -0.074,0.5352 -0.222,1.0352 -0.441,1.4727 -0.219,0.4414 -0.528,0.793 -0.922,1.0547 -0.395,0.2656 -0.934,0.3906 -1.606,0.3906 -0.937,0 -1.847,-0.2148 -2.726,-0.6328 -0.879,-0.4336 -1.727,-0.9492 -2.547,-1.5625 V 0.441406 h -5.277 V 21.2305 h 4.484 l 0.57,-2.2383 c 1.118,0.8516 2.258,1.5156 3.43,2.0039 1.172,0.4805 2.461,0.7227 3.867,0.7227 0.789,0 1.578,-0.125 2.356,-0.3711 0.773,-0.2539 1.476,-0.6719 2.105,-1.2579 0.633,-0.5859 1.141,-1.3476 1.52,-2.3046 0.383,-0.961 0.574,-2.1289 0.574,-3.5391 V 0.441406 h -5.281" /><path
         id="path34"
         style="fill:#163572;fill-opacity:1;fill-rule:nonzero;stroke:none"
         d="M 151.672,0.441406 V 12.6641 c 0,0.5312 -0.035,1.0586 -0.109,1.6054 -0.075,0.5352 -0.219,1.0352 -0.442,1.4727 -0.219,0.4414 -0.523,0.793 -0.922,1.0547 -0.394,0.2656 -0.929,0.3906 -1.605,0.3906 -0.938,0 -1.848,-0.2148 -2.727,-0.6328 -0.879,-0.4336 -1.726,-0.9492 -2.547,-1.5625 V 0.441406 h -5.277 V 21.2305 h 4.484 l 0.575,-2.2383 c 1.113,0.8516 2.253,1.5156 3.425,2.0039 1.172,0.4805 2.461,0.7227 3.868,0.7227 0.793,0 1.578,-0.125 2.355,-0.3711 0.773,-0.2539 1.48,-0.6719 2.109,-1.2579 0.629,-0.5859 1.137,-1.3476 1.52,-2.3046 0.379,-0.961 0.57,-2.1289 0.57,-3.5391 V 0.441406 h -5.277" /><path
         id="path36"
         style="fill:#163572;fill-opacity:1;fill-rule:nonzero;stroke:none"
         d="m 174.18,13.1445 c -0.032,0.5664 -0.121,1.1133 -0.285,1.6719 -0.161,0.5469 -0.411,1.0352 -0.747,1.4844 -0.335,0.4375 -0.746,0.8008 -1.23,1.0625 -0.48,0.2656 -1.063,0.4023 -1.738,0.4023 -0.645,0 -1.215,-0.1367 -1.711,-0.4023 -0.5,-0.2617 -0.926,-0.6172 -1.278,-1.043 -0.351,-0.4297 -0.625,-0.9297 -0.812,-1.4844 -0.191,-0.5664 -0.285,-1.125 -0.285,-1.6914 z m -7.953,-3.69137 c 0.027,-0.76954 0.195,-1.47266 0.503,-2.12891 0.305,-0.65234 0.727,-1.21094 1.254,-1.6875 0.528,-0.47266 1.141,-0.83203 1.844,-1.08594 0.703,-0.2539 1.449,-0.37109 2.242,-0.37109 0.996,0 1.918,0.11719 2.77,0.35156 0.848,0.23438 1.73,0.59766 2.64,1.09375 l 1.274,-3.35937 C 177.582,1.44531 176.34,0.867188 175.016,0.519531 173.695,0.175781 172.422,0 171.191,0 c -1.816,0 -3.378,0.304688 -4.687,0.898438 -1.309,0.605472 -2.387,1.406252 -3.227,2.421872 -0.843,1.00391 -1.464,2.16797 -1.863,3.47657 -0.398,1.30078 -0.598,2.65625 -0.598,4.06252 0,1.4961 0.215,2.8906 0.645,4.1992 0.426,1.3008 1.055,2.4531 1.883,3.4492 0.828,0.9961 1.82,1.7852 2.984,2.3516 1.16,0.5781 2.488,0.8594 3.985,0.8594 1.406,0 2.679,-0.254 3.824,-0.7696 1.14,-0.5078 2.129,-1.2422 2.949,-2.1797 0.82,-0.9375 1.449,-2.0586 1.891,-3.3789 0.437,-1.3164 0.656,-2.7812 0.656,-4.4023 V 9.45313 h -13.406" /><path
         id="path38"
         style="fill:#163572;fill-opacity:1;fill-rule:nonzero;stroke:none"
         d="m 195.281,16.3594 c -0.437,0.2617 -0.879,0.4375 -1.316,0.5273 -0.442,0.086 -0.82,0.125 -1.145,0.125 -0.613,0 -1.257,-0.1445 -1.929,-0.4375 -0.676,-0.2929 -1.364,-0.7617 -2.067,-1.4101 V 0.441406 h -5.277 V 21.2305 h 4.441 l 0.571,-2.1953 c 1.086,0.9375 2.066,1.6211 2.945,2.0507 0.879,0.418 1.816,0.6329 2.812,0.6329 0.497,0 1.004,-0.0782 1.52,-0.2266 0.512,-0.1445 0.973,-0.3594 1.383,-0.6524 l -1.938,-4.4804" /><path
         id="path40"
         style="fill:#163572;fill-opacity:1;fill-rule:nonzero;stroke:none"
         d="m 219.594,18.6836 c -0.496,1.375 -0.864,2.5781 -1.098,3.6133 h -0.043 c -0.09,-0.5117 -0.226,-1.0469 -0.418,-1.6328 -0.187,-0.586 -0.402,-1.2188 -0.637,-1.8946 l -2.503,-6.7187 h 7.035 z m 6.859,-18.242194 -2.855,7.253904 h -10.332 l -2.68,-7.253904 h -5.234 L 216.605,29.5391 h 3.868 L 232.125,0.441406 h -5.672" /><path
         id="path42"
         style="fill:#163572;fill-opacity:1;fill-rule:nonzero;stroke:none"
         d="M 246.926,0.683594 C 245.621,0.226563 244.246,0 242.813,0 c -1.7,0 -3.188,0.285156 -4.461,0.859375 -1.278,0.566405 -2.344,1.339845 -3.211,2.304685 -0.864,0.96875 -1.508,2.10157 -1.934,3.41016 -0.426,1.30859 -0.641,2.68359 -0.641,4.14848 0,1.5937 0.278,3.0586 0.817,4.4062 0.543,1.3477 1.289,2.5 2.242,3.4649 0.953,0.9687 2.09,1.7304 3.406,2.2851 1.321,0.5586 2.754,0.8399 4.309,0.8399 1.406,0 2.601,-0.1446 3.586,-0.4375 0.98,-0.293 1.765,-0.6368 2.351,-1.0157 l -0.089,-4.3086 c -0.731,0.5586 -1.516,0.9883 -2.352,1.2813 -0.836,0.293 -1.797,0.4375 -2.883,0.4375 -0.879,0 -1.687,-0.1758 -2.437,-0.5078 -0.75,-0.3438 -1.395,-0.8008 -1.938,-1.3867 -0.539,-0.586 -0.965,-1.2891 -1.273,-2.1094 -0.309,-0.8203 -0.457,-1.7071 -0.457,-2.6836 0,-0.8789 0.121,-1.73049 0.371,-2.5508 0.25,-0.82031 0.625,-1.53125 1.121,-2.14844 0.5,-0.61328 1.129,-1.11328 1.89,-1.47265 0.762,-0.3711 1.657,-0.54688 2.68,-0.54688 0.996,0 1.887,0.13672 2.66,0.41016 0.778,0.28125 1.535,0.625 2.27,1.03515 l 1.316,-3.46875 c -0.847,-0.58593 -1.929,-1.11328 -3.23,-1.562496" /><path
         id="path44"
         style="fill:#163572;fill-opacity:1;fill-rule:nonzero;stroke:none"
         d="M 253.711,0.441406 V 21.2305 h 5.277 V 0.441406 Z m 5.937,27.214894 c 0,-0.879 -0.316,-1.6407 -0.949,-2.2657 -0.629,-0.6328 -1.41,-0.9453 -2.347,-0.9453 -0.914,0 -1.68,0.3125 -2.309,0.9258 -0.629,0.6172 -0.945,1.375 -0.945,2.2852 0,0.8515 0.316,1.5898 0.945,2.2148 0.629,0.6367 1.395,0.9492 2.309,0.9492 0.937,0 1.718,-0.3125 2.347,-0.9258 0.633,-0.6172 0.949,-1.3593 0.949,-2.2382" /><path
         id="path46"
         style="fill:#163572;fill-opacity:1;fill-rule:nonzero;stroke:none"
         d="m 276.57,26.7773 c -0.906,0.3829 -1.785,0.5665 -2.632,0.5665 -1.641,0 -2.461,-0.9375 -2.461,-2.8125 v -3.3008 h 5.492 l -1.364,-4.043 h -4.128 V 0.441406 h -5.282 V 17.1875 h -3.031 v 4.043 h 3.031 v 2.8906 c 0,1.5234 0.25,2.7656 0.746,3.7227 0.5,0.9648 1.122,1.7265 1.852,2.2851 0.734,0.5469 1.523,0.918 2.375,1.1133 0.848,0.1836 1.641,0.2812 2.371,0.2812 0.559,0 1.211,-0.0781 1.957,-0.2148 0.75,-0.1484 1.457,-0.3789 2.133,-0.7031 l -1.059,-3.8282" /><path
         id="path48"
         style="fill:#163572;fill-opacity:1;fill-rule:nonzero;stroke:none"
         d="m 291.699,13.1445 c -0.027,0.5664 -0.121,1.1133 -0.285,1.6719 -0.16,0.5469 -0.406,1.0352 -0.746,1.4844 -0.336,0.4375 -0.746,0.8008 -1.23,1.0625 -0.485,0.2656 -1.063,0.4023 -1.739,0.4023 -0.644,0 -1.215,-0.1367 -1.715,-0.4023 -0.496,-0.2617 -0.921,-0.6172 -1.273,-1.043 -0.352,-0.4297 -0.625,-0.9297 -0.816,-1.4844 -0.188,-0.5664 -0.282,-1.125 -0.282,-1.6914 z m -7.953,-3.69137 c 0.027,-0.76954 0.195,-1.47266 0.5,-2.12891 0.309,-0.65234 0.731,-1.21094 1.258,-1.6875 0.527,-0.47266 1.141,-0.83203 1.844,-1.08594 0.703,-0.2539 1.453,-0.37109 2.242,-0.37109 0.996,0 1.918,0.11719 2.769,0.35156 0.848,0.23438 1.735,0.59766 2.641,1.09375 l 1.273,-3.35937 C 295.102,1.44531 293.855,0.867188 292.535,0.519531 291.215,0.175781 289.941,0 288.711,0 c -1.816,0 -3.379,0.304688 -4.688,0.898438 -1.308,0.605472 -2.386,1.406252 -3.226,2.421872 -0.848,1.00391 -1.465,2.16797 -1.859,3.47657 -0.403,1.30078 -0.602,2.65625 -0.602,4.06252 0,1.4961 0.215,2.8906 0.644,4.1992 0.422,1.3008 1.055,2.4531 1.883,3.4492 0.825,0.9961 1.825,1.7852 2.985,2.3516 1.164,0.5781 2.492,0.8594 3.984,0.8594 1.406,0 2.68,-0.254 3.824,-0.7696 1.141,-0.5078 2.129,-1.2422 2.949,-2.1797 0.821,-0.9375 1.45,-2.0586 1.887,-3.3789 0.442,-1.3164 0.66,-2.7812 0.66,-4.4023 V 9.45313 h -13.406" /><path
         id="path50"
         style="fill:#163572;fill-opacity:1;fill-rule:nonzero;stroke:none"
         d="m 312.797,16.3594 c -0.438,0.2617 -0.879,0.4375 -1.317,0.5273 -0.441,0.086 -0.82,0.125 -1.144,0.125 -0.613,0 -1.258,-0.1445 -1.934,-0.4375 -0.672,-0.2929 -1.363,-0.7617 -2.062,-1.4101 V 0.441406 h -5.281 V 21.2305 h 4.445 l 0.57,-2.1953 c 1.082,0.9375 2.067,1.6211 2.946,2.0507 0.878,0.418 1.816,0.6329 2.812,0.6329 0.496,0 1.004,-0.0782 1.52,-0.2266 0.511,-0.1445 0.968,-0.3594 1.378,-0.6524 l -1.933,-4.4804" /><path
         id="path52"
         style="fill:#163572;fill-opacity:1;fill-rule:nonzero;stroke:none"
         d="m 337.109,18.6836 c -0.5,1.375 -0.863,2.5781 -1.097,3.6133 h -0.043 c -0.09,-0.5117 -0.227,-1.0469 -0.418,-1.6328 -0.192,-0.586 -0.406,-1.2188 -0.641,-1.8946 l -2.504,-6.7187 h 7.035 z m 6.86,-18.242194 -2.856,7.253904 h -10.332 l -2.679,-7.253904 h -5.235 L 334.121,29.5391 h 3.867 L 349.641,0.441406 h -5.672" /><path
         id="path54"
         style="fill:#163572;fill-opacity:1;fill-rule:nonzero;stroke:none"
         d="M 372.02,0.8125 C 370.117,0.273438 367.992,0 365.645,0 c -2.254,0 -4.293,0.371094 -6.11,1.12109 -1.816,0.7461 -3.351,1.78125 -4.613,3.09766 -1.266,1.31641 -2.231,2.87109 -2.906,4.64063 -0.672,1.77732 -1.008,3.69142 -1.008,5.74222 0,2.1367 0.387,4.1289 1.164,5.9726 0.777,1.8477 1.867,3.4492 3.277,4.7969 1.406,1.3477 3.098,2.4023 5.078,3.1641 1.977,0.7617 4.18,1.1445 6.618,1.1445 1.843,0 3.46,-0.1563 4.859,-0.4609 1.391,-0.3125 2.609,-0.6524 3.664,-1.0352 l -0.086,-4.9688 c -1.113,0.586 -2.328,1.0704 -3.648,1.4727 -1.321,0.3906 -2.739,0.5977 -4.262,0.5977 -1.91,0 -3.539,-0.2735 -4.902,-0.8204 -1.364,-0.539 -2.489,-1.2812 -3.368,-2.2187 -0.879,-0.9375 -1.531,-2.0195 -1.957,-3.2539 -0.425,-1.2266 -0.632,-2.5469 -0.632,-3.9531 0,-1.5235 0.234,-2.9297 0.703,-4.2266 0.468,-1.28906 1.132,-2.40234 1.996,-3.36328 0.863,-0.94531 1.929,-1.69531 3.187,-2.24609 1.262,-0.53516 2.684,-0.8086 4.27,-0.8086 0.965,0 1.836,0.07813 2.609,0.22266 0.777,0.14844 1.434,0.33203 1.961,0.57031 v 9.8516 h 5.32 V 2.72656 C 375.535,1.99219 373.926,1.35938 372.02,0.8125" /><path
         id="path56"
         style="fill:#163572;fill-opacity:1;fill-rule:nonzero;stroke:none"
         d="M 414.008,0.441406 400.906,17.4102 c -0.613,0.8242 -1.14,1.5351 -1.582,2.1289 -0.437,0.6093 -0.863,1.2148 -1.273,1.8281 h -0.086 c 0.058,-0.5 0.094,-1.1016 0.105,-1.8047 0.016,-0.7031 0.028,-1.3867 0.028,-2.0625 V 0.441406 h -5.325 V 29.4141 h 5.411 l 12.617,-16.3086 c 0.676,-0.8789 1.23,-1.6289 1.672,-2.2461 0.437,-0.6172 0.832,-1.21877 1.183,-1.80471 h 0.09 c -0.058,0.64453 -0.09,1.34761 -0.09,2.11721 0,0.7617 0,1.4648 0,2.1094 v 16.1328 h 5.282 V 0.441406 h -4.93" /><path
         id="path58"
         style="fill:#163572;fill-opacity:1;fill-rule:nonzero;stroke:none"
         d="m 439.77,27.168 c 0,-0.7891 -0.274,-1.4532 -0.817,-2.0039 -0.539,-0.5352 -1.195,-0.8086 -1.957,-0.8086 -0.762,0 -1.406,0.2734 -1.933,0.8086 -0.528,0.5507 -0.79,1.2148 -0.79,2.0039 0,0.7617 0.262,1.4179 0.79,1.9648 0.527,0.5352 1.171,0.8086 1.933,0.8086 0.762,0 1.418,-0.2734 1.957,-0.8086 0.543,-0.5469 0.817,-1.2031 0.817,-1.9648 z M 435.723,9.98047 432.754,9.89453 c -1.43,-0.05859 -2.473,-0.32422 -3.125,-0.79297 -0.652,-0.46875 -0.981,-1.14062 -0.981,-2.02343 0,-0.84766 0.282,-1.55079 0.848,-2.08594 0.567,-0.54688 1.406,-0.8125 2.516,-0.8125 0.926,0 1.703,0.13672 2.312,0.41015 0.614,0.28125 1.082,0.58594 1.399,0.90625 z M 431.547,27.168 c 0,-0.7891 -0.274,-1.4532 -0.817,-2.0039 -0.539,-0.5352 -1.187,-0.8086 -1.953,-0.8086 -0.765,0 -1.414,0.2734 -1.957,0.8086 -0.543,0.5507 -0.812,1.2148 -0.812,2.0039 0,0.7617 0.269,1.4179 0.812,1.9648 0.543,0.5352 1.192,0.8086 1.957,0.8086 0.766,0 1.414,-0.2734 1.953,-0.8086 0.543,-0.5469 0.817,-1.2031 0.817,-1.9648 z M 437.055,0.441406 436.168,2.28516 C 435.492,1.67188 434.68,1.13281 433.711,0.683594 432.75,0.226563 431.566,0 430.16,0 c -0.961,0 -1.855,0.15625 -2.672,0.460938 -0.816,0.300781 -1.531,0.750002 -2.144,1.335942 -0.617,0.58593 -1.098,1.28906 -1.449,2.10156 -0.348,0.82031 -0.528,1.73828 -0.528,2.76172 0,2.16015 0.781,3.80864 2.348,4.95314 1.558,1.1406 3.683,1.7539 6.375,1.8437 l 3.676,0.1289 v 0.5352 c 0,1.2695 -0.383,2.1797 -1.161,2.7344 -0.777,0.5468 -1.722,0.8203 -2.835,0.8203 -1.118,0 -2.122,-0.1563 -3.016,-0.457 -0.895,-0.3125 -1.68,-0.6758 -2.352,-1.086 l -1.672,3.3008 c 1.407,0.9375 2.766,1.5547 4.071,1.8477 1.301,0.2929 2.66,0.4375 4.066,0.4375 2.582,0 4.61,-0.5743 6.071,-1.7383 1.46,-1.1524 2.195,-3.0938 2.195,-5.8203 V 5.9375 c 0,-1.49219 0.027,-2.66406 0.09,-3.49609 0.054,-0.83985 0.16,-1.50391 0.304,-2.000004 h -4.472" /><path
         id="path60"
         style="fill:#163572;fill-opacity:1;fill-rule:nonzero;stroke:none"
         d="m 458.102,26.7773 c -0.911,0.3829 -1.789,0.5665 -2.637,0.5665 -1.641,0 -2.461,-0.9375 -2.461,-2.8125 v -3.3008 h 5.492 l -1.363,-4.043 h -4.129 V 0.441406 h -5.277 V 17.1875 h -3.036 v 4.043 h 3.036 v 2.8906 c 0,1.5234 0.246,2.7656 0.746,3.7227 0.496,0.9648 1.117,1.7265 1.847,2.2851 0.735,0.5469 1.528,0.918 2.375,1.1133 0.852,0.1836 1.641,0.2812 2.371,0.2812 0.559,0 1.211,-0.0781 1.961,-0.2148 0.746,-0.1484 1.453,-0.3789 2.129,-0.7031 l -1.054,-3.8282" /><path
         id="path62"
         style="fill:#163572;fill-opacity:1;fill-rule:nonzero;stroke:none"
         d="m 473.227,13.1445 c -0.028,0.5664 -0.122,1.1133 -0.282,1.6719 -0.164,0.5469 -0.41,1.0352 -0.75,1.4844 -0.336,0.4375 -0.746,0.8008 -1.226,1.0625 -0.485,0.2656 -1.067,0.4023 -1.739,0.4023 -0.644,0 -1.218,-0.1367 -1.714,-0.4023 -0.5,-0.2617 -0.922,-0.6172 -1.278,-1.043 -0.347,-0.4297 -0.625,-0.9297 -0.812,-1.4844 -0.192,-0.5664 -0.285,-1.125 -0.285,-1.6914 z m -7.954,-3.69137 c 0.032,-0.76954 0.196,-1.47266 0.504,-2.12891 0.309,-0.65234 0.727,-1.21094 1.254,-1.6875 0.528,-0.47266 1.145,-0.83203 1.848,-1.08594 0.699,-0.2539 1.449,-0.37109 2.238,-0.37109 0.996,0 1.918,0.11719 2.77,0.35156 0.847,0.23438 1.734,0.59766 2.64,1.09375 l 1.278,-3.35937 C 476.633,1.44531 475.387,0.867188 474.063,0.519531 472.742,0.175781 471.469,0 470.238,0 c -1.816,0 -3.379,0.304688 -4.687,0.898438 -1.309,0.605472 -2.387,1.406252 -3.227,2.421872 -0.844,1.00391 -1.465,2.16797 -1.859,3.47657 -0.402,1.30078 -0.602,2.65625 -0.602,4.06252 0,1.4961 0.215,2.8906 0.645,4.1992 0.426,1.3008 1.055,2.4531 1.887,3.4492 0.824,0.9961 1.82,1.7852 2.98,2.3516 1.164,0.5781 2.492,0.8594 3.984,0.8594 1.407,0 2.684,-0.254 3.825,-0.7696 1.14,-0.5078 2.129,-1.2422 2.949,-2.1797 0.82,-0.9375 1.449,-2.0586 1.89,-3.3789 0.438,-1.3164 0.661,-2.7812 0.661,-4.4023 V 9.45313 h -13.411" /><path
         id="path64"
         style="fill:#163572;fill-opacity:1;fill-rule:nonzero;stroke:none"
         d="M 489.293,0.214844 C 488.605,0.078125 487.969,0 487.383,0 c -1.735,0 -2.965,0.441406 -3.695,1.32031 -0.735,0.87891 -1.098,1.96094 -1.098,3.25 V 31.5625 h 5.277 V 6.90625 c 0,-0.76172 0.094,-1.32031 0.281,-1.65234 0.192,-0.34375 0.567,-0.50782 1.125,-0.50782 0.176,0 0.379,0.01954 0.614,0.05079 0.234,0.02734 0.543,0.08593 0.926,0.17578 l 0.656,-3.91797 C 490.707,0.644531 489.98,0.371094 489.293,0.214844" /><path
         id="path66"
         style="fill:#163572;fill-opacity:1;fill-rule:nonzero;stroke:none"
         d="m 509.016,6.46484 c 0,-1.17187 -0.243,-2.16796 -0.711,-2.98828 -0.469,-0.82031 -1.098,-1.49218 -1.887,-2 C 505.625,0.957031 504.719,0.585938 503.691,0.351563 502.668,0.117188 501.609,0 500.527,0 c -1.726,0 -3.218,0.1875 -4.464,0.546875 -1.243,0.371094 -2.325,0.832035 -3.231,1.386715 l 1.715,3.86719 c 0.762,-0.52734 1.625,-0.96484 2.594,-1.3164 0.968,-0.35157 1.964,-0.53125 2.992,-0.53125 1.082,0 1.945,0.19921 2.594,0.57812 0.64,0.37891 0.964,0.91797 0.964,1.62109 0,0.61719 -0.234,1.11329 -0.703,1.4961 -0.468,0.3789 -1.062,0.73047 -1.781,1.03515 -0.719,0.3086 -1.484,0.61329 -2.305,0.92579 -0.82,0.30078 -1.593,0.70312 -2.308,1.20312 -0.719,0.4961 -1.317,1.1211 -1.785,1.875 -0.469,0.7422 -0.704,1.707 -0.704,2.8789 0,1.8164 0.684,3.293 2.047,4.4336 1.364,1.1445 3.305,1.7188 5.825,1.7188 1.32,0 2.461,-0.0977 3.429,-0.2813 0.965,-0.1953 1.86,-0.4492 2.68,-0.7734 v -4.3946 c -0.906,0.3516 -1.836,0.6641 -2.789,0.9493 -0.949,0.2734 -1.984,0.4101 -3.102,0.4101 -0.933,0 -1.664,-0.1484 -2.175,-0.4414 -0.512,-0.293 -0.766,-0.7422 -0.766,-1.3594 0,-0.5547 0.238,-1.0039 0.723,-1.3437 0.484,-0.3321 1.082,-0.6446 1.8,-0.9375 0.719,-0.293 1.504,-0.6172 2.356,-0.9492 0.847,-0.3399 1.633,-0.75 2.351,-1.25 0.719,-0.5079 1.321,-1.1446 1.801,-1.91411 0.485,-0.78125 0.731,-1.76953 0.731,-2.96875" /></g></g></svg>