<?xml version="1.0" encoding="UTF-8" standalone="no"?>
<svg
   xmlns:dc="http://purl.org/dc/elements/1.1/"
   xmlns:cc="http://creativecommons.org/ns#"
   xmlns:rdf="http://www.w3.org/1999/02/22-rdf-syntax-ns#"
   xmlns:svg="http://www.w3.org/2000/svg"
   xmlns="http://www.w3.org/2000/svg"
   viewBox="0 0 681.33331 200"
   height="200"
   width="681.33331"
   xml:space="preserve"
   id="svg2"
   version="1.1"><metadata
     id="metadata8"><rdf:RDF><cc:Work
         rdf:about=""><dc:format>image/svg+xml</dc:format><dc:type
           rdf:resource="http://purl.org/dc/dcmitype/StillImage" /></cc:Work></rdf:RDF></metadata><defs
     id="defs6" /><g
     transform="matrix(1.3333333,0,0,-1.3333333,0,200)"
     id="g10"><g
       transform="scale(0.1)"
       id="g12"><path
         id="path14"
         style="fill:#33bdf2;fill-opacity:1;fill-rule:evenodd;stroke:none"
         d="m 480.836,620.25 c -51.809,0 -86.977,41.098 -76.125,97.742 l 91.473,513.638 c 9.613,54.77 63.347,98.35 114.515,98.35 l 416.991,1.72 31.65,160.14 H 375.293 c -124.09,0 -236.047,-92.13 -258.426,-214.14 L 8.11719,681.258 C -14.9141,552.391 63.1328,462.738 186.59,462.738 H 5066.81 L 5106.46,622 c -2.32,-0.676 -4307.737,-1.75 -4625.624,-1.75" /><path
         id="path16"
         style="fill:#132e62;fill-opacity:1;fill-rule:evenodd;stroke:none"
         d="m 798.211,89.125 50.148,276.363 h 66.575 L 896.547,263.461 h 109.813 l 18.45,102.027 h 66.58 L 1041.66,89.125 h -66.578 l 21.133,117.75 H 885.984 L 864.789,89.125 Z m 457.499,117.75 c -3.13,6.25 -6.95,10.867 -11.49,13.926 -4.5,3.031 -9.77,4.543 -15.72,4.543 -12.58,0 -23.21,-6.321 -31.95,-18.864 -8.76,-12.546 -13.09,-28.242 -13.09,-47.039 0,-9.949 2.45,-17.898 7.41,-23.804 4.93,-5.992 11.62,-8.992 19.99,-8.992 9.55,0 17.71,3.968 24.57,11.918 6.82,7.945 11.57,19.136 14.2,33.636 z m 71.04,53.988 -30.93,-171.738 h -61.32 l 3.15,17.902 c -9.35,-8.5465 -18.31,-14.7145 -26.79,-18.695 -8.52,-3.9648 -17.21,-5.9218 -26.08,-5.9218 -18.26,0 -33.01,6.8945 -44.24,20.6918 -11.25,13.8 -16.85,32.027 -16.85,54.597 0,31.41 8.27,57.5 24.85,78.25 16.6,20.746 37.37,31.164 62.32,31.164 9.74,0 18.71,-1.871 26.79,-5.578 8.09,-3.805 16.38,-9.828 24.89,-18.23 l 2.72,17.558 z m 245.25,0 -31.36,-171.738 h -60.49 l 4.7,25.684 c -9.43,-10.387 -19.2,-18.1449 -29.33,-23.2309 -10.24,-5.0625 -21,-7.5859 -32.37,-7.5859 -15.91,0 -28.69,4.4766 -38.16,13.5273 -9.57,9.0435 -14.34,20.8785 -14.34,35.6365 0,2.164 0.08,4.223 0.3,6.375 0.2,2.09 0.52,4.157 0.93,6.203 l 20.71,115.129 h 61.1 l -17.85,-97.574 c 0,-0.269 0,-0.59 0,-0.969 -0.99,-6.125 -1.55,-10.73 -1.55,-13.933 0,-5.215 1.55,-9.321 4.6,-12.305 3.1,-2.988 7.33,-4.473 12.66,-4.473 10.17,0 19.31,4.075 27.4,12.207 8.12,8.137 13.38,18.946 15.85,32.399 l 15.7,84.648 z m 45.98,-121.797 c 11.5,-6.484 22.12,-11.293 31.81,-14.578 9.76,-3.242 18.39,-4.84 26,-4.84 6.1,0 11.16,1.418 15.17,4.293 3.94,2.832 5.96,6.344 5.96,10.594 0,3.516 -1.41,6.629 -4.22,9.281 -2.79,2.692 -8.94,6.211 -18.52,10.504 l -11.77,5.52 c -13.42,6.23 -23.52,13.855 -30.33,22.773 -6.76,8.969 -10.17,19.188 -10.17,30.629 0,16.012 6.68,29.235 20.05,39.696 13.44,10.472 30.68,15.734 51.81,15.734 12.31,0 24.26,-1.746 35.96,-5.262 11.71,-3.449 23.33,-8.91 34.97,-16.269 l -16.52,-34.684 c -9.63,5.856 -18.73,10.277 -27.26,13.356 -8.56,3.042 -16.16,4.554 -22.87,4.554 -6.35,0 -11.55,-1.371 -15.57,-4.113 -3.93,-2.738 -5.94,-6.258 -5.94,-10.551 0,-3.933 1.66,-7.406 5.07,-10.32 3.42,-2.891 10.71,-6.653 21.79,-11.207 l 10.76,-4.426 c 11.97,-4.945 21.4,-11.891 28.06,-20.934 6.76,-9.043 10.1,-19.054 10.1,-30.113 0,-17.058 -6.86,-30.855 -20.66,-41.4491 -13.77,-10.6055 -31.87,-15.9492 -54.33,-15.9492 -13.44,0 -26.47,1.7773 -39.1,5.2617 -12.58,3.4649 -24.67,8.8086 -36.3,15.8946 z m 179.6,-49.941 50.52,280.199 h 61.29 l -23.66,-132.269 c 9.9,9.902 19.8,17.179 29.61,21.925 9.91,4.692 20.2,7.028 30.89,7.028 15.92,0 28.7,-4.473 38.31,-13.528 9.56,-9.05 14.39,-20.875 14.39,-35.648 0,-1.902 -0.15,-3.965 -0.43,-6.191 -0.27,-2.207 -0.53,-4.305 -0.79,-6.184 L 1976.76,89.125 h -61.26 l 18.03,97.648 c 0,0.18 0.07,0.59 0.13,1.102 0.94,5.984 1.41,10.547 1.41,13.738 0,5.188 -1.54,9.289 -4.59,12.297 -3.1,2.985 -7.28,4.473 -12.64,4.473 -10.06,0 -19.26,-4.16 -27.61,-12.5 -8.37,-8.32 -13.71,-19.11 -16.05,-32.512 l -15.32,-84.246 z m 382.88,117.75 c -3.16,6.25 -6.96,10.867 -11.51,13.926 -4.49,3.031 -9.77,4.543 -15.72,4.543 -12.58,0 -23.21,-6.321 -31.93,-18.864 -8.78,-12.546 -13.1,-28.242 -13.1,-47.039 0,-9.949 2.45,-17.898 7.42,-23.804 4.92,-5.992 11.61,-8.992 19.95,-8.992 9.59,0 17.75,3.968 24.6,11.918 6.83,7.945 11.56,19.136 14.19,33.636 z m 71.05,53.988 -30.97,-171.738 h -61.3 l 3.15,17.902 c -9.36,-8.5465 -18.32,-14.7145 -26.82,-18.695 -8.49,-3.9648 -17.16,-5.9218 -26.05,-5.9218 -18.25,0 -33.02,6.8945 -44.25,20.6918 -11.25,13.8 -16.85,32.027 -16.85,54.597 0,31.41 8.29,57.5 24.86,78.25 16.59,20.746 37.37,31.164 62.29,31.164 9.77,0 18.74,-1.871 26.82,-5.578 8.08,-3.805 16.37,-9.828 24.86,-18.23 l 2.75,17.558 z m 35.86,-171.738 50.54,280.199 h 62.44 L 2349.5,89.125 Z m 247.47,4.4258 c -8.76,-2.9297 -17.06,-5.1602 -24.8,-6.586 -7.76,-1.5039 -15.17,-2.1953 -22.26,-2.1953 -16.71,0 -29.72,3.8946 -39.16,11.6993 -9.43,7.8162 -14.13,18.6562 -14.13,32.5352 0,2.387 0.23,5.457 0.69,9.105 0.47,3.707 1.27,8.582 2.45,14.707 l 11.79,64.391 h -33.71 l 7.42,43.656 h 34.31 l 9.21,52.77 63.65,12.019 -11.58,-64.789 h 42.54 l -8.03,-43.656 h -42.53 l -10.76,-59.445 c -0.38,-1.508 -0.66,-3.117 -0.71,-4.899 -0.09,-1.703 -0.09,-3.836 -0.09,-6.355 0,-5.613 1.27,-9.774 3.8,-12.567 2.54,-2.789 6.43,-4.234 11.69,-4.234 3.05,0 6.64,0.453 10.85,1.445 4.28,0.961 9.9,2.614 16.99,4.864 z m 64.89,-28.25 c 11.5,-5.7149 21.78,-9.8672 30.89,-12.4727 9.07,-2.6015 17.65,-3.9297 25.72,-3.9297 13.96,0 24.61,4.6329 31.94,13.8086 7.28,9.2266 12.45,24.668 15.45,46.199 -9.2,-8.004 -18.23,-13.8552 -26.95,-17.6404 -8.6,-3.707 -17.42,-5.5859 -26.31,-5.5859 -18.25,0 -32.95,6.6328 -44.07,19.8323 -11.09,13.211 -16.63,30.718 -16.63,52.558 0,31.176 8.36,57.129 24.99,77.879 16.65,20.746 37.37,31.164 62.16,31.164 9.76,0 18.74,-1.871 26.81,-5.578 8.07,-3.805 16.38,-9.828 24.88,-18.23 l 2.73,17.558 h 61.5 L 2763.89,99.5859 c -6.13,-33.8086 -16.77,-57.9023 -31.95,-72.3398 -15.17,-14.3945 -36.81,-21.61719 -65.02,-21.61719 -13.05,0 -25.97,1.46093 -38.63,4.30859 -12.78,2.8594 -25.08,7.1719 -36.97,12.8828 z m 122.06,141.5742 c -3.13,6.25 -6.95,10.867 -11.49,13.926 -4.51,3.031 -9.77,4.543 -15.72,4.543 -12.29,0 -22.87,-6.176 -31.75,-18.61 -8.88,-12.367 -13.29,-27.511 -13.29,-45.406 0,-10.66 2.52,-19.195 7.52,-25.555 5.03,-6.304 11.65,-9.519 19.86,-9.519 9.57,0 17.75,4.031 24.6,12.031 6.81,8.008 11.55,19.285 14.19,33.914 z m 174.73,-15.43 h 74.58 c 0.13,1.18 0.21,2.368 0.26,3.508 0.09,1.246 0.14,2.363 0.14,3.383 0,8.816 -2.99,15.945 -8.88,21.617 -5.96,5.66 -13.56,8.5 -22.87,8.5 -9.61,0 -18.44,-3.375 -26.42,-10.07 -7.94,-6.762 -13.56,-15.746 -16.81,-26.938 z m 97.71,-94.5153 c -11.22,-5.3516 -22.53,-9.3203 -33.89,-11.9649 -11.37,-2.6679 -22.65,-4.0312 -33.91,-4.0312 -27.25,0 -49.39,7.9258 -66.34,23.7964 -17,15.872 -25.49,36.625 -25.49,62.125 0,28.239 10.1,52.235 30.35,72.102 20.26,19.828 44.91,29.715 74.07,29.715 24.41,0 43.84,-7.078 58.36,-21.27 14.5,-14.191 21.73,-33.246 21.73,-57.254 0,-3.195 -0.08,-6.031 -0.22,-8.574 -0.11,-2.527 -0.34,-5.133 -0.57,-7.812 l -3.49,-6.133 h -123.19 v -2.844 c 0,-12.699 3.95,-22.523 11.75,-29.418 7.83,-6.953 19.05,-10.426 33.69,-10.426 8.84,0 18.65,1.457 29.4,4.305 10.77,2.867 22.58,7.18 35.37,13.016 z m 64.65,-7.8047 31.15,171.738 h 55.81 l -6.1,-33.558 c 7.51,13.074 15.26,22.84 23.4,29.156 8.15,6.355 17.13,9.547 26.74,9.547 2.87,0 5.82,-0.184 8.75,-0.633 2.95,-0.465 5.9,-1.191 8.91,-2.23 l -11.16,-60.422 c -3.67,0.906 -7.16,1.554 -10.49,2 -3.37,0.461 -6.51,0.66 -9.51,0.66 -12.23,0 -21.85,-3.91 -28.66,-11.715 -6.89,-7.813 -11.91,-20.547 -15.18,-38.25 l -11.58,-66.293 z m 312.22,117.75 c -3.15,6.25 -6.96,10.867 -11.51,13.926 -4.5,3.031 -9.77,4.543 -15.72,4.543 -12.58,0 -23.2,-6.321 -31.94,-18.864 -8.78,-12.546 -13.11,-28.242 -13.11,-47.039 0,-9.949 2.47,-17.898 7.43,-23.804 4.92,-5.992 11.61,-8.992 19.96,-8.992 9.58,0 17.74,3.968 24.62,11.918 6.8,7.945 11.55,19.136 14.17,33.636 z m 71.04,53.988 -30.95,-171.738 h -61.31 l 3.14,17.902 c -9.35,-8.5465 -18.31,-14.7145 -26.81,-18.695 -8.49,-3.9648 -17.16,-5.9218 -26.06,-5.9218 -18.24,0 -33.01,6.8945 -44.24,20.6918 -11.26,13.8 -16.84,32.027 -16.84,54.597 0,31.41 8.27,57.5 24.84,78.25 16.61,20.746 37.38,31.164 62.3,31.164 9.78,0 18.73,-1.871 26.81,-5.578 8.1,-3.805 16.39,-9.828 24.88,-18.23 l 2.74,17.558 z m -125.55,60.176 c 0,6.762 2.43,12.504 7.23,17.371 4.88,4.824 10.75,7.235 17.65,7.235 7.15,0 13.16,-2.348 18.04,-7.028 4.81,-4.754 7.22,-10.601 7.22,-17.578 0,-6.691 -2.48,-12.43 -7.43,-17.156 -5.01,-4.699 -10.9,-7.031 -17.83,-7.031 -6.68,0 -12.43,2.386 -17.47,7.222 -4.93,4.895 -7.41,10.461 -7.41,16.965 z m 66.19,0 c 0,6.762 2.46,12.504 7.43,17.371 5.02,4.824 10.9,7.235 17.84,7.235 7.14,0 13.15,-2.348 18.03,-7.028 4.82,-4.754 7.23,-10.601 7.23,-17.578 0,-6.691 -2.48,-12.43 -7.43,-17.156 -5.01,-4.699 -10.88,-7.031 -17.83,-7.031 -6.71,0 -12.57,2.386 -17.64,7.222 -5.1,4.895 -7.63,10.461 -7.63,16.965 z M 3596.39,93.5508 c -8.73,-2.9297 -17.05,-5.1602 -24.78,-6.586 -7.77,-1.5039 -15.19,-2.1953 -22.27,-2.1953 -16.72,0 -29.73,3.8946 -39.16,11.6993 -9.43,7.8162 -14.13,18.6562 -14.13,32.5352 0,2.387 0.24,5.457 0.71,9.105 0.46,3.707 1.25,8.582 2.43,14.707 l 11.78,64.391 h -33.71 l 7.43,43.656 H 3519 l 9.21,52.77 63.67,12.019 -11.6,-64.789 h 42.53 l -8.03,-43.656 h -42.53 l -10.73,-59.445 c -0.39,-1.508 -0.68,-3.117 -0.73,-4.899 -0.09,-1.703 -0.09,-3.836 -0.09,-6.355 0,-5.613 1.28,-9.774 3.8,-12.567 2.54,-2.789 6.43,-4.234 11.71,-4.234 3.02,0 6.61,0.453 10.83,1.445 4.28,0.961 9.91,2.614 16.99,4.864 z m 117.25,97.8942 h 74.57 c 0.14,1.18 0.23,2.368 0.29,3.508 0.05,1.246 0.13,2.363 0.13,3.383 0,8.816 -3,15.945 -8.89,21.617 -5.95,5.66 -13.56,8.5 -22.86,8.5 -9.63,0 -18.45,-3.375 -26.42,-10.07 -7.94,-6.762 -13.57,-15.746 -16.82,-26.938 z m 97.72,-94.5153 c -11.23,-5.3516 -22.55,-9.3203 -33.91,-11.9649 -11.36,-2.6679 -22.63,-4.0312 -33.9,-4.0312 -27.24,0 -49.37,7.9258 -66.36,23.7964 -16.98,15.872 -25.48,36.625 -25.48,62.125 0,28.239 10.09,52.235 30.38,72.102 20.25,19.828 44.89,29.715 74.06,29.715 24.39,0 43.84,-7.078 58.35,-21.27 14.5,-14.191 21.74,-33.246 21.74,-57.254 0,-3.195 -0.1,-6.031 -0.23,-8.574 -0.12,-2.527 -0.33,-5.133 -0.58,-7.812 l -3.47,-6.133 h -123.21 v -2.844 c 0,-12.699 3.94,-22.523 11.76,-29.418 7.82,-6.953 19.06,-10.426 33.7,-10.426 8.81,0 18.65,1.457 29.4,4.305 10.75,2.867 22.59,7.18 35.36,13.016 z m 339.09,-2.3359 c -10.5,-3.8477 -20.85,-6.6836 -30.95,-8.586 -10.08,-1.9062 -20.21,-2.8711 -30.32,-2.8711 -29.31,0 -52.47,8.0274 -69.45,24.0233 -17,16.028 -25.46,37.738 -25.46,65.192 0,15.062 2.67,29.355 7.96,42.847 5.32,13.449 12.99,25.414 22.97,35.824 9.22,9.481 20.28,16.649 33.1,21.559 12.87,4.863 27.18,7.273 42.95,7.273 13.04,0 25.89,-1.828 38.51,-5.441 12.63,-3.66 25.02,-9.129 37.08,-16.398 l -19.73,-37.246 c -9.14,6.691 -18.38,11.761 -27.72,15.203 -9.4,3.406 -18.71,5.101 -27.93,5.101 -17.91,0 -32.67,-6.14 -44.21,-18.41 -11.55,-12.289 -17.29,-28.004 -17.29,-47.148 0,-16.075 4.53,-28.805 13.6,-38.106 9.04,-9.351 21.35,-13.996 36.93,-13.996 3.48,0 6.95,0.149 10.44,0.41 3.49,0.27 7,0.649 10.46,1.27 l 4.57,24.629 h -34.07 l 6.52,36.218 h 78.61 z m 44.23,-5.4688 20.78,114.531 h 40.49 l -2.98,-17.156 c 6.08,6.879 12.52,11.98 19.25,15.406 6.73,3.449 13.76,5.16 21.07,5.16 8.74,0 16.02,-2.066 21.9,-6.289 5.87,-4.199 9.8,-10.105 11.8,-17.679 6.65,8.093 13.52,14.121 20.69,18.082 7.22,3.957 14.83,5.886 22.94,5.886 10.53,0 18.95,-3.031 25.31,-9.039 6.28,-6.105 9.43,-14.082 9.43,-23.984 0,-1.363 -0.04,-2.684 -0.18,-4.027 -0.14,-1.289 -0.36,-2.672 -0.63,-4.102 l -14.07,-76.789 h -40.77 l 11.91,65.117 c 0.33,1.688 0.6,3.371 0.76,5.067 0.19,1.683 0.28,3.3 0.28,4.804 0,3.492 -0.96,6.2 -2.96,8.215 -1.96,1.992 -4.63,2.985 -8.02,2.985 -6.63,0 -12.54,-2.715 -17.77,-8.161 -5.2,-5.425 -8.66,-12.703 -10.31,-21.851 l -10.42,-56.176 h -41.02 l 11.87,65.195 c 0.44,2.219 0.77,4.129 0.99,5.723 0.21,1.59 0.36,3 0.36,4.07 0,3.379 -1.05,6.125 -3.09,8.157 -2.04,2.05 -4.77,3.043 -8.16,3.043 -6.63,0 -12.56,-2.715 -17.77,-8.161 -5.24,-5.425 -8.67,-12.703 -10.31,-21.851 l -10.5,-56.176 z m 289.37,46.379 c 0,-6.172 1.81,-11.297 5.31,-15.336 3.53,-4.023 7.95,-6.004 13.23,-6.004 7.67,0 14.18,4.098 19.54,12.41 5.34,8.227 8.01,18.43 8.01,30.547 0,6.563 -1.59,11.813 -4.76,15.719 -3.14,3.918 -7.45,5.855 -12.83,5.855 -8.01,0 -14.75,-4.113 -20.24,-12.406 -5.5,-8.242 -8.26,-18.519 -8.26,-30.785 z m -49.32,-46.379 33.97,186.84 h 40.82 l -15.25,-84.285 c 5.9,5.586 11.71,9.715 17.43,12.402 5.71,2.637 11.59,4 17.71,4 12.07,0 21.86,-4.621 29.37,-13.801 7.47,-9.195 11.22,-21.351 11.22,-36.386 0,-21.059 -5.37,-38.661 -16.19,-52.883 -10.81,-14.2659 -23.9,-21.3753 -39.43,-21.3753 -6.88,0 -13.42,1.4531 -19.61,4.3555 -6.15,2.8711 -11.86,7.1641 -17.07,12.8048 l -2.39,-11.672 z m 169.42,0 33.43,184.27 h 44.41 l -12.28,-68.012 h 73.25 l 12.3,68.012 h 44.38 l -33.16,-184.27 h -44.41 l 14.11,78.504 h -73.5 l -14.16,-78.504 h -44.37" /><path
         id="path18"
         style="fill:#132e62;fill-opacity:1;fill-rule:evenodd;stroke:none"
         d="m 1150.77,973.793 -151.579,0.609 c -30.066,0 -53.75,-19.914 -58.222,-46.691 l -13.426,-74.707 c -5.129,-26.133 11.496,-47.309 39.648,-47.309 l 103.629,0.614 c 27.52,0 53.11,20.562 58.22,46.695 z M 737.555,1129.42 c 28.781,14.95 63.957,23.66 93.386,23.66 l 305.129,-0.61 c 27.5,0 42.22,-16.19 37.73,-40.47 -3.83,-22.42 -24.93,-40.46 -51.81,-40.46 H 818.145 c -68.454,0 -127.938,-49.82 -138.168,-107.099 L 658.219,841.191 C 644.805,769.574 692.121,709.82 775.277,709.82 h 246.933 c 43.49,0 78.04,22.414 94.02,47.938 0.66,-11.844 1.28,-19.922 12.17,-47.938 h 269.94 c -12.8,26.141 -17.27,65.368 -11.52,96.489 l 56.95,313.151 c 12.77,69.75 -38.39,131.38 -117.72,131.38 H 777.199 Z m 726.665,-419.6 h 321.76 c -12.14,28.641 -15.98,69.114 -10.87,95.243 l 36.47,206.707 c 8.96,49.19 60.12,93.37 113.86,93.37 h 105.55 c 21.12,0 42.87,-9.31 60.76,-29.88 l 31.36,175.58 h -162.48 c -46.06,0 -99.79,-26.76 -133.71,-72.22 l 1.94,72.22 h -261.65 c 10.86,-34.24 10.86,-64.13 8.33,-78.45 l -67.83,-365.452 c -3.18,-18.672 -16.61,-56.032 -43.49,-97.118 z m 616.03,0 h 321.76 c -12.17,28.641 -16.01,69.114 -10.88,95.243 l 36.46,206.707 c 8.95,49.19 60.14,93.37 113.86,93.37 h 105.54 c 21.11,0 42.86,-9.31 60.77,-29.88 l 31.36,175.58 h -162.49 c -46.06,0 -99.79,-26.76 -133.68,-72.22 l 1.91,72.22 h -261.63 c 10.88,-34.24 10.88,-64.13 8.32,-78.45 l -67.81,-365.452 c -3.2,-18.672 -16.63,-56.032 -43.49,-97.118 z m 1134.13,263.973 -151.58,0.609 c -30.09,0 -53.75,-19.914 -58.23,-46.691 l -13.42,-74.707 c -5.11,-26.133 11.5,-47.309 39.65,-47.309 l 103.64,0.614 c 27.5,0 53.08,20.562 58.21,46.695 z M 2801.8,1129.42 c 28.79,14.95 63.97,23.66 92.75,23.66 l 305.13,-0.61 c 27.51,0 42.22,-16.19 37.73,-40.47 -3.82,-22.42 -24.93,-40.46 -51.8,-40.46 h -303.22 c -68.44,0 -127.92,-49.82 -138.14,-107.099 l -21.75,-123.25 c -13.45,-71.617 33.88,-131.371 117.04,-131.371 h 246.27 c 43.51,0 78.04,22.414 94.04,47.938 0.62,-11.844 1.28,-19.922 12.15,-47.938 h 269.95 c -12.8,26.141 -17.27,65.368 -11.5,96.489 l 56.93,313.151 c 12.77,69.75 -38.38,131.38 -117.73,131.38 h -548.19 z m 726.04,-419.6 h 321.75 c -12.14,28.641 -15.99,69.114 -10.87,95.243 l 36.47,206.707 c 8.96,49.19 60.12,93.37 113.86,93.37 h 105.54 c 21.11,0 42.87,-9.31 60.78,-29.88 l 31.33,175.58 h -162.46 c -46.07,0 -99.8,-26.76 -133.71,-72.22 l 1.93,72.22 h -261.62 c 10.85,-34.24 10.85,-64.13 8.31,-78.45 l -67.81,-365.452 c -3.2,-18.672 -16.64,-56.032 -43.5,-97.118 z m 1134.8,263.973 -151.61,0.609 c -30.07,0 -53.74,-19.914 -58.21,-46.691 l -13.44,-74.707 c -5.09,-26.133 11.51,-47.309 39.67,-47.309 l 103.62,0.614 c 27.51,0 53.1,20.562 58.22,46.695 z m -413.25,155.627 c 28.8,14.95 63.97,23.66 93.41,23.66 l 305.12,-0.61 c 27.49,0 42.2,-16.19 37.74,-40.47 -3.83,-22.42 -24.94,-40.46 -51.8,-40.46 H 4330 c -68.45,0 -127.96,-49.82 -138.18,-107.099 l -21.75,-123.25 c -13.43,-71.617 33.91,-131.371 117.08,-131.371 h 246.91 c 43.51,0 78.05,22.414 94.03,47.938 0.64,-11.844 1.29,-19.922 12.14,-47.938 h 269.95 c -12.78,26.141 -17.25,65.368 -11.5,96.489 l 56.94,313.151 c 12.78,69.75 -38.39,131.38 -117.71,131.38 h -548.86 l -39.66,-121.42" /></g></g></svg>