<?xml version="1.0" encoding="UTF-8" standalone="no"?>
<svg
   xmlns:dc="http://purl.org/dc/elements/1.1/"
   xmlns:cc="http://creativecommons.org/ns#"
   xmlns:rdf="http://www.w3.org/1999/02/22-rdf-syntax-ns#"
   xmlns:svg="http://www.w3.org/2000/svg"
   xmlns="http://www.w3.org/2000/svg"
   viewBox="0 0 377.95334 56.692932"
   height="56.692932"
   width="377.95334"
   xml:space="preserve"
   id="svg2"
   version="1.1"><metadata
     id="metadata8"><rdf:RDF><cc:Work
         rdf:about=""><dc:format>image/svg+xml</dc:format><dc:type
           rdf:resource="http://purl.org/dc/dcmitype/StillImage" /></cc:Work></rdf:RDF></metadata><defs
     id="defs6"><clipPath
       id="clipPath18"
       clipPathUnits="userSpaceOnUse"><path
         id="path16"
         d="M 0,42.52 H 283.465 V 0 H 0 Z" /></clipPath></defs><g
     transform="matrix(1.3333333,0,0,-1.3333333,0,56.692933)"
     id="g10"><g
       id="g12"><g
         clip-path="url(#clipPath18)"
         id="g14"><g
           transform="translate(283.4649,1.0411)"
           id="g20"><path
             id="path22"
             style="fill:#e63d3a;fill-opacity:1;fill-rule:evenodd;stroke:none"
             d="m 0,0 h -3.204 l -13.047,19.402 c -2.461,3.672 -4.979,7.748 -4.979,7.748 0,0 0.115,-4.076 0.115,-7.748 V 0 h -6.639 v 33.635 c 0,1.72 -0.171,2.697 -0.686,3.9 -0.745,1.608 -1.891,2.717 -1.891,2.717 h 9.27 l 9.387,-13.676 c 2.517,-3.617 5.208,-7.861 5.208,-7.861 0,0 -0.172,4.244 -0.172,7.861 v 13.676 h 6.637 z m -275.512,0 h -7.953 v 40.635 c 6.409,0 10.243,0.345 13.275,0.345 8.24,0 14.25,-3.558 14.25,-12.339 0,-5.28 -3.205,-9.411 -7.898,-10.672 0,0 1.201,-1.436 1.945,-3.1 L -254.969,0 h -8.926 l -7.668,16.533 c -1.946,4.19 -3.205,5.049 -3.205,5.049 0.802,-0.057 1.546,-0.057 2.175,-0.057 5.78,0 8.526,2.641 8.526,6.887 0,4.246 -3.033,6.141 -7.496,6.141 -2.346,0 -3.949,-0.172 -3.949,-0.172 z m 169.057,40.252 h 7.954 L -98.505,0 h -7.95 z M -36.796,6.719 -38.398,0 h -20.086 v 40.234 h 21.231 l -1.546,-6.599 H -50.587 V 23.592 h 11.274 l -1.545,-6.485 h -9.729 V 6.719 Z M -186.627,17.107 V 0 h -7.897 v 40.252 h 21.23 l -1.487,-6.617 h -11.846 V 23.592 h 11.273 l -1.488,-6.485 z m 28.784,0 V 0 h -8.012 v 40.252 h 21.231 l -1.488,-6.617 h -11.731 V 23.592 h 11.216 l -1.488,-6.485 z m -55.509,23.145 h 7.954 V 0 h -7.954 z M -115.268,6.719 -116.87,0 h -20.086 v 40.252 h 21.23 l -1.601,-6.617 h -11.731 V 23.592 h 11.274 l -1.546,-6.485 h -9.728 V 6.719 Z M -218.873,0 h -8.813 l -2.117,7.523 h -12.233 L -244.096,0 h -7.381 l 10.643,35.125 c 0.287,0.977 0.459,1.551 0.459,2.125 0,1.607 -1.145,3.002 -1.145,3.002 h 9.728 z m -12.332,13.318 -3.627,12.666 c -0.515,1.78 -1.088,4.563 -1.088,4.563 0,0 -0.572,-2.783 -1.086,-4.563 l -3.598,-12.666 z M -88.238,8.086 c 0,0 2.501,-2.186 7.467,-2.186 3.994,0 5.934,2.356 5.934,5.231 0,2.762 -2.438,4.377 -4.656,5.582 l -3.125,1.697 c -5.025,2.729 -7.166,6.11 -7.166,10.34 0,7.535 5.066,12.23 12.333,12.23 5.903,0 9.366,-2.013 9.366,-2.013 l -1.533,-6.613 c -1.93,1.667 -4.272,2.242 -6.825,2.242 -3.464,0 -5.46,-2.188 -5.46,-4.95 0,-2.228 1.215,-3.501 3.202,-4.537 l 3.86,-2.013 c 6.086,-3.17 8.175,-6.498 8.175,-11.213 0,-7.676 -5.501,-12.426 -13.82,-12.426 -6.163,0 -9.366,1.83 -9.366,1.83 z" /></g></g></g></g></svg>