<?xml version="1.0" encoding="utf-8"?>
<!-- Generator: Adobe Illustrator 24.3.0, SVG Export Plug-In . SVG Version: 6.00 Build 0)  -->
<svg version="1.1" id="Ebene_1" xmlns="http://www.w3.org/2000/svg" xmlns:xlink="http://www.w3.org/1999/xlink" x="0px" y="0px"
	 viewBox="0 0 16 16" style="enable-background:new 0 0 16 16;" xml:space="preserve">
<style type="text/css">
	.st0{fill:#999999;}
	.st1{fill:url(#SVGID_1_);}
</style>
<g>
	<path class="st0" d="M16,14c0,1.1-0.9,2-2,2H2c-1.1,0-2-0.9-2-2V2c0-1.1,0.9-2,2-2h12c1.1,0,2,0.9,2,2V14z"/>
</g>
<g>
	
		<linearGradient id="SVGID_1_" gradientUnits="userSpaceOnUse" x1="8.2" y1="3.9818" x2="8.2" y2="15.9818" gradientTransform="matrix(1 0 0 -1 0 18)">
		<stop  offset="0" style="stop-color:#CECFCF"/>
		<stop  offset="1.672655e-02" style="stop-color:#D0D1D1"/>
		<stop  offset="0.1939" style="stop-color:#E5E6E6"/>
		<stop  offset="0.3922" style="stop-color:#F4F4F4"/>
		<stop  offset="0.6288" style="stop-color:#FCFCFC"/>
		<stop  offset="1" style="stop-color:#FFFFFF"/>
	</linearGradient>
	<path class="st1" d="M3.1,13.3c0.1-0.1,0.1-0.1,0.1-0.2c0.2-0.3,0.3-0.7,0.4-1.2l0.7-7.3c0-0.2,0-0.3,0-0.5c0-0.3-0.1-0.5-0.2-0.7
		L3.8,2.9L13.7,2l0.2,2.8l-0.5-0.1c-0.2-0.1-0.5-0.1-0.7-0.1h-0.2c-0.2,0-0.5,0-0.8,0L8.9,4.9L8.7,6.6l2.9-0.3
		c0.4,0,0.8-0.1,1.2-0.3l0.6-0.3L13,9.2L12.6,9c-0.2-0.1-0.4-0.1-0.6-0.2c-0.1,0-0.2,0-0.3,0c-0.2,0-0.3,0-0.5,0L8.4,9.1l-0.3,2.6
		c0,0.2,0,0.3,0,0.5c0,0.3,0.1,0.5,0.2,0.7l0.3,0.5L2.5,14L3.1,13.3z"/>
	<path d="M13.3,2.4l0.1,1.9c-0.2-0.1-0.5-0.1-0.8-0.1c-0.1,0-0.1,0-0.2,0c-0.3,0-0.5,0-0.8,0h-0.3L8.5,4.5L8.3,7l3.4-0.3
		c0.5,0,0.9-0.2,1.3-0.4l-0.2,2.3c-0.2-0.1-0.5-0.2-0.7-0.2c-0.1,0-0.2,0-0.3,0c-0.2,0-0.3,0-0.5,0L8.1,8.7l-0.3,2.9
		c0,0.2,0,0.4,0,0.6c0,0.3,0.1,0.6,0.3,0.9l-4.7,0.4c0.1-0.1,0.1-0.1,0.2-0.2C3.7,13,3.9,12.5,3.9,12l0.7-7.3c0-0.2,0-0.4,0-0.6
		c0-0.3-0.1-0.6-0.3-0.9L13.3,2.4 M14,1.6l-0.8,0.1L4.4,2.5L3.1,2.6l0.6,1c0.1,0.2,0.2,0.3,0.2,0.6c0,0.2,0,0.3,0,0.4l-0.8,7.3
		c0,0.4-0.2,0.8-0.3,1.1c0,0,0,0.1-0.1,0.1l-1.2,1.4l1.8-0.2L8,13.9l1.2-0.1l-0.6-1c-0.1-0.2-0.2-0.3-0.2-0.6c0-0.2,0-0.3,0-0.4
		l0.2-2.3L11,9.3c0.2,0,0.3,0,0.5,0c0.1,0,0.2,0,0.3,0c0.2,0,0.3,0.1,0.5,0.1l0.9,0.4l0.1-1l0.2-2.3l0.1-1.2L14,5.4l-0.1-1.1
		l-0.1-1.9L14,1.6L14,1.6z M9.2,5.2L11.4,5h0.3c0.2,0,0.5,0,0.7,0h0.2c0.2,0,0.5,0,0.6,0.1l0.4,0.1l-1,0.5C12.3,5.9,12,6,11.6,6
		L9.1,6.2L9.2,5.2L9.2,5.2z"/>
</g>
</svg>
