<?xml version="1.0" encoding="utf-8"?>
<!-- Generator: Adobe Illustrator 24.2.1, SVG Export Plug-In . SVG Version: 6.00 Build 0)  -->
<svg version="1.1" xmlns="http://www.w3.org/2000/svg" xmlns:xlink="http://www.w3.org/1999/xlink" x="0px" y="0px"
	 viewBox="0 0 16 16" style="enable-background:new 0 0 16 16;" xml:space="preserve">
<style type="text/css">
	.st0{fill:none;stroke:#000000;stroke-width:5.6693;stroke-miterlimit:10;}
	.st1{fill:none;}
	.st2{fill:#30459E;}
	.st3{fill:none;stroke:#30459E;stroke-width:4.252;stroke-miterlimit:10;}
	.st4{fill:url(#SVGID_1_);}
	.st5{fill:#EFD51F;}
	.st6{fill:url(#SVGID_2_);}
	.st7{fill:url(#SVGID_3_);}
	.st8{fill:url(#SVGID_4_);}
	.st9{fill:url(#SVGID_5_);}
	.st10{fill:none;stroke:#EFD51F;stroke-width:5.4925;stroke-miterlimit:10;}
	.st11{fill:#EFD51F;stroke:#EFD51F;stroke-width:3.1137;stroke-miterlimit:10;}
	.st12{fill:#EEEFEF;}
	.st13{fill:#FFFFFF;}
	.st14{fill:#EFD51F;stroke:#EFD51F;stroke-width:0.4556;stroke-miterlimit:10;}
	.st15{fill:url(#SVGID_6_);}
	.st16{fill:url(#SVGID_7_);}
	.st17{fill:url(#SVGID_8_);}
	.st18{fill:url(#SVGID_9_);}
	.st19{fill:url(#SVGID_10_);}
	.st20{fill:url(#SVGID_11_);}
	.st21{fill:url(#SVGID_12_);}
	.st22{fill:url(#SVGID_13_);}
	.st23{fill:url(#SVGID_14_);}
	.st24{fill:url(#SVGID_15_);}
	.st25{fill:url(#SVGID_16_);}
	.st26{fill:url(#SVGID_17_);}
	.st27{fill:url(#SVGID_18_);}
</style>
<g id="HG">
</g>
<g id="Schnee">
</g>
<g id="Schweif">
</g>
<g id="Ball">
	<g>
		<path class="st5" d="M6.59,8.24c2.95,1.34,5.96,2.58,9.33,2.78c-1.57,0.61-3.29,0.96-5.02,1.15c-1.73,0.19-3.48,0.24-5.22,0.22
			L6.59,8.24z"/>
	</g>
	<g>
		<path class="st5" d="M6.41,10.24c1.46,0.73,2.94,1.42,4.49,1.92c1.54,0.51,3.18,0.81,4.85,1.02c-1.65,0.26-3.35,0.44-5.09,0.38
			c-1.73-0.06-3.46-0.32-5.15-0.63L6.41,10.24z"/>
	</g>
	<g>
		<path class="st5" d="M6.65,7.55c1.24,0.49,2.47,0.97,3.73,1.35c0.63,0.19,1.26,0.34,1.91,0.44l2.01,0.27l-1.99,0.44
			c-0.68,0.14-1.38,0.21-2.08,0.26c-1.4,0.09-2.78,0.06-4.16,0.02L6.65,7.55z"/>
	</g>
	<g>
		<path class="st2" d="M7.41,11.07c1.96,1.12,4.35,1.63,6.69,2.12c-2.39,0.01-4.83,0.06-7.3-0.69L7.41,11.07z"/>
	</g>
	<g>
		<path class="st2" d="M7.27,9.48c2.38,0.96,4.92,1.61,7.59,1.69c-2.59,0.63-5.37,0.7-8.11,0.37L7.27,9.48z"/>
	</g>
	<g>
		<path class="st2" d="M7.36,8.07c0.69,0.39,1.53,0.7,2.38,0.96c0.85,0.26,1.73,0.48,2.62,0.66c-0.89,0.18-1.8,0.31-2.72,0.4
			c-0.93,0.08-1.86,0.13-2.88,0.02L7.36,8.07z"/>
	</g>
	<g>
		<path class="st14" d="M5.27,4.11c1.48,0,2.92,0.79,3.68,2.19c1.1,2.03,0.35,4.56-1.68,5.66c-0.63,0.34-1.31,0.51-1.99,0.51
			c-1.48,0-2.92-0.79-3.68-2.19C0.5,8.25,1.25,5.71,3.28,4.62C3.91,4.27,4.59,4.11,5.27,4.11 M5.27,3.31L5.27,3.31
			c-0.82,0-1.64,0.21-2.37,0.6c-2.41,1.31-3.31,4.34-2,6.75c0.87,1.61,2.55,2.61,4.38,2.61c0.82,0,1.64-0.21,2.37-0.6
			c2.41-1.31,3.31-4.34,2-6.75C8.78,4.3,7.1,3.31,5.27,3.31L5.27,3.31z"/>
		<g>
			<path class="st12" d="M5.27,12.67c-2.42,0-4.38-1.97-4.38-4.38S2.85,3.9,5.27,3.9c2.42,0,4.38,1.97,4.38,4.38
				S7.69,12.67,5.27,12.67z"/>
			<path class="st2" d="M5.27,4.11c2.31,0,4.18,1.87,4.18,4.18s-1.87,4.18-4.18,4.18c-2.31,0-4.18-1.87-4.18-4.18
				S2.96,4.11,5.27,4.11 M5.27,3.69c-2.53,0-4.59,2.06-4.59,4.59c0,2.53,2.06,4.59,4.59,4.59c2.53,0,4.59-2.06,4.59-4.59
				C9.86,5.75,7.8,3.69,5.27,3.69L5.27,3.69z"/>
		</g>
		<path class="st13" d="M7.44,5.79C8.01,6.38,5.96,6.5,4.81,7.64C3.61,8.83,3.28,11,2.68,10.39c-1.16-1.2-1.04-3.21,0.27-4.48
			S6.28,4.59,7.44,5.79z"/>
		<ellipse class="st2" cx="3.78" cy="7.95" rx="0.55" ry="0.59"/>
		<ellipse transform="matrix(0.7265 -0.6871 0.6871 0.7265 -3.0948 6.4861)" class="st2" cx="6.6" cy="7.13" rx="0.53" ry="0.59"/>
		<ellipse transform="matrix(0.9919 -0.1269 0.1269 0.9919 -1.2386 0.8137)" class="st2" cx="5.77" cy="10.13" rx="0.6" ry="0.49"/>
		<ellipse transform="matrix(0.2595 -0.9657 0.9657 0.2595 -5.7901 7.2494)" class="st2" cx="1.83" cy="7.4" rx="0.59" ry="0.29"/>
		<ellipse transform="matrix(0.866 -0.5 0.5 0.866 -4.7071 2.2438)" class="st2" cx="1.83" cy="9.91" rx="0.26" ry="0.52"/>
		<ellipse transform="matrix(0.8441 -0.5362 0.5362 0.8441 -2.317 2.5023)" class="st2" cx="3.14" cy="5.24" rx="0.52" ry="0.23"/>
		<ellipse transform="matrix(0.8262 -0.5634 0.5634 0.8262 -2.0531 5.8764)" class="st2" cx="8.5" cy="6.27" rx="0.21" ry="0.53"/>
		<ellipse transform="matrix(0.1842 -0.9829 0.9829 0.1842 0.1686 9.7473)" class="st2" cx="5.96" cy="4.77" rx="0.23" ry="0.52"/>
		
			<ellipse transform="matrix(0.2595 -0.9657 0.9657 0.2595 -8.4326 12.6515)" class="st2" cx="4.03" cy="11.82" rx="0.26" ry="0.58"/>
		
			<ellipse transform="matrix(0.2595 -0.9657 0.9657 0.2595 -2.5002 15.0073)" class="st2" cx="8.54" cy="9.13" rx="0.59" ry="0.35"/>
		<ellipse transform="matrix(0.9169 -0.3992 0.3992 0.9169 -4.0506 3.8231)" class="st2" cx="7.15" cy="11.64" rx="0.52" ry="0.2"/>
	</g>
</g>
<g id="Froni_Fighters">
</g>
</svg>
