<?xml version="1.0" encoding="utf-8"?>
<!-- Generator: Adobe Illustrator 24.0.0, SVG Export Plug-In . SVG Version: 6.00 Build 0)  -->
<svg version="1.1" id="Ebene_1" xmlns="http://www.w3.org/2000/svg" xmlns:xlink="http://www.w3.org/1999/xlink" x="0px" y="0px"
	 viewBox="0 0 16 16" style="enable-background:new 0 0 16 16;" xml:space="preserve">
<style type="text/css">
	.st0{fill:url(#SVGID_1_);}
	.st1{fill:#FFCB00;}
	.st2{fill:url(#SVGID_2_);}
	.st3{fill:#004698;}
	.st4{fill:none;}
	.st5{fill:#FFCB00;stroke:#FFCB00;stroke-width:0.2596;stroke-miterlimit:10;}
	.st6{fill:#F7F6F7;}
</style>
<g>
	
		<linearGradient id="SVGID_1_" gradientUnits="userSpaceOnUse" x1="-3.637979e-12" y1="8" x2="16" y2="8" gradientTransform="matrix(6.123234e-17 -1 1 6.123234e-17 0 16)">
		<stop  offset="7.943308e-02" style="stop-color:#00397F"/>
		<stop  offset="1" style="stop-color:#004698"/>
	</linearGradient>
	<path class="st0" d="M14,0c1.1,0,2,0.9,2,2v12c0,1.1-0.9,2-2,2H2c-1.1,0-2-0.9-2-2V2c0-1.1,0.9-2,2-2H14z"/>
</g>
<g>
	<path class="st5" d="M8,2.3c2,0,4,1.1,5,3c1.5,2.7,0.5,6.2-2.3,7.7c-0.9,0.5-1.8,0.7-2.7,0.7c-2,0-4-1.1-5-3C1.5,8,2.6,4.5,5.3,3
		C6.2,2.6,7.1,2.3,8,2.3 M8,1.2L8,1.2c-1.1,0-2.2,0.3-3.2,0.8c-3.3,1.8-4.5,5.9-2.7,9.2c1.2,2.2,3.5,3.5,5.9,3.5
		c1.1,0,2.2-0.3,3.2-0.8c3.3-1.8,4.5-5.9,2.7-9.2C12.8,2.6,10.5,1.2,8,1.2L8,1.2z"/>
	<g>
		<path class="st6" d="M8,14C4.7,14,2.1,11.3,2.1,8S4.7,2.1,8,2.1s5.9,2.7,5.9,5.9S11.3,14,8,14z"/>
		<path class="st3" d="M8,2.4c3.1,0,5.7,2.5,5.7,5.7c0,3.1-2.5,5.7-5.7,5.7S2.4,11.2,2.4,8C2.4,4.9,4.9,2.4,8,2.4 M8,1.8
			C4.6,1.8,1.8,4.6,1.8,8s2.8,6.2,6.2,6.2s6.2-2.8,6.2-6.2S11.4,1.8,8,1.8L8,1.8z"/>
	</g>
	<circle class="st3" cx="5.9" cy="7.5" r="0.8"/>
	<ellipse transform="matrix(0.707 -0.7072 0.7072 0.707 -1.5966 8.852)" class="st3" cx="9.9" cy="6.4" rx="0.8" ry="0.8"/>
	<ellipse transform="matrix(0.9823 -0.1871 0.1871 0.9823 -1.7958 1.8112)" class="st3" cx="8.7" cy="10.4" rx="0.8" ry="0.7"/>
	<ellipse transform="matrix(0.222 -0.975 0.975 0.222 -3.9809 8.5102)" class="st3" cx="3.3" cy="6.7" rx="0.8" ry="0.4"/>
	<ellipse transform="matrix(0.8103 -0.586 0.586 0.8103 -5.2776 3.9362)" class="st3" cx="3.4" cy="10.1" rx="0.4" ry="0.7"/>
	<ellipse transform="matrix(0.7976 -0.6032 0.6032 0.7976 -1.2994 3.8772)" class="st3" cx="5.1" cy="3.9" rx="0.7" ry="0.3"/>
	<ellipse transform="matrix(0.7902 -0.6128 0.6128 0.7902 -0.5704 8.6606)" class="st3" cx="12.4" cy="5.2" rx="0.3" ry="0.7"/>
	<ellipse transform="matrix(0.1622 -0.9868 0.9868 0.1622 4.2984 11.622)" class="st3" cx="9" cy="3.3" rx="0.3" ry="0.7"/>
	<ellipse transform="matrix(0.2477 -0.9688 0.9688 0.2477 -7.5505 15.6728)" class="st3" cx="6.3" cy="12.7" rx="0.4" ry="0.8"/>
	<ellipse transform="matrix(0.2499 -0.9683 0.9683 0.2499 0.4351 18.8199)" class="st3" cx="12.4" cy="9.1" rx="0.8" ry="0.5"/>
	<ellipse transform="matrix(0.9174 -0.3979 0.3979 0.9174 -4.1004 5.2424)" class="st3" cx="10.6" cy="12.5" rx="0.7" ry="0.3"/>
</g>
</svg>
